<svg width="135" height="51" viewBox="0 0 135 51" fill="none" xmlns="http://www.w3.org/2000/svg">
<g clip-path="url(#clip0_1602_11)">
<path d="M25.9508 25.7835L13.5206 21.0022C11.1846 20.1041 9.47459 17.8609 9.47459 15.026C9.51801 11.9767 11.9881 9.48787 14.9811 9.47701C18.1519 9.47701 20.5261 12.0418 20.5261 15.0033C20.5261 17.5868 22.6172 19.7568 25.3044 19.7401C27.9126 19.7174 30.0185 17.5424 29.9999 14.8908C29.9701 10.9267 28.41 7.1994 25.6064 4.39679C19.7465 -1.4651 10.2543 -1.46609 4.39338 4.39679C1.56018 7.229 0 10.9957 0 15.0033V45.7925C0 48.4047 2.12465 50.5293 4.7368 50.5293H25.263C27.8751 50.5293 29.9999 48.4047 29.9999 45.7925V31.6778C29.9999 29.0834 28.3725 26.714 25.9508 25.7835ZM22.0064 44.2136H7.89467C7.02231 44.2136 6.31574 43.507 6.31574 42.6346C6.31574 41.7623 7.02231 41.0557 7.89467 41.0557H22.0064C22.8788 41.0557 23.5853 41.7623 23.5853 42.6346C23.5853 43.507 22.8788 44.2136 22.0064 44.2136ZM22.0064 37.8978H7.89467C7.02231 37.8978 6.31574 37.1913 6.31574 36.3189C6.31574 35.4465 7.02231 34.74 7.89467 34.74H22.0064C22.8788 34.74 23.5853 35.4465 23.5853 36.3189C23.5853 37.1913 22.8788 37.8978 22.0064 37.8978Z" fill="#1C45E9"/>
</g>
<path d="M40.5458 17.5205C40.5458 16.8564 41.0048 16.3877 41.6005 16.3877C42.0399 16.3877 42.4012 16.5732 42.87 17.0811C43.6219 17.9502 44.618 18.3994 45.7802 18.3994C47.3427 18.3994 48.2313 17.7744 48.2313 16.6904C48.2313 15.792 47.6063 15.2354 46.161 14.8936L44.1688 14.4053C41.8739 13.8779 40.7313 12.6572 40.7313 10.7236C40.7313 8.27246 42.6649 6.68066 45.6337 6.68066C47.2255 6.68066 48.6512 7.13965 49.5302 7.9502C50.1356 8.49707 50.4579 9.12207 50.4579 9.7373C50.4579 10.3525 50.0282 10.7725 49.3934 10.7725C48.9833 10.7725 48.6317 10.5967 48.3192 10.2061C47.7235 9.31738 46.8251 8.81934 45.6727 8.81934C44.286 8.81934 43.3973 9.4834 43.3973 10.5186C43.3973 11.3486 44.0028 11.9346 45.243 12.2178L47.245 12.6963C49.6864 13.2529 50.8387 14.4346 50.8387 16.3975C50.8387 18.9365 48.8173 20.5479 45.6337 20.5479C43.9052 20.5479 42.3719 20.0693 41.493 19.2393C40.8778 18.6729 40.5458 18.0771 40.5458 17.5205ZM67.7333 18.9463C67.7333 19.8643 67.2645 20.3623 66.4442 20.3623C65.6239 20.3623 65.1649 19.8643 65.1649 18.9463V13.7998C65.1649 12.5693 64.5009 11.8662 63.3876 11.8662C62.2841 11.8662 61.5321 12.6963 61.5321 13.9463V18.9463C61.5321 19.8643 61.0927 20.3623 60.2821 20.3623C59.4813 20.3623 59.0419 19.8643 59.0419 18.9463V13.8486C59.0419 12.6182 58.3485 11.8662 57.2352 11.8662C56.1415 11.8662 55.4091 12.6768 55.4091 13.9365V18.9463C55.4091 19.8643 54.9403 20.3623 54.12 20.3623C53.2997 20.3623 52.8309 19.8643 52.8309 18.9463V11.1924C52.8309 10.333 53.3192 9.80566 54.1005 9.80566C54.8524 9.80566 55.3114 10.3037 55.3505 11.1338V11.6221H55.4774C55.8192 10.46 56.9032 9.7373 58.3094 9.7373C59.7645 9.7373 60.8192 10.4795 61.161 11.6904H61.2782C61.7274 10.4893 62.8993 9.7373 64.3934 9.7373C66.4833 9.7373 67.7333 10.9775 67.7333 13.0283V18.9463ZM72.2743 17.0908C72.2743 17.9502 72.9579 18.5459 73.9637 18.5459C75.077 18.5459 75.9462 17.7842 75.9462 16.8076V15.7334H73.954C72.8993 15.7334 72.2743 16.2412 72.2743 17.0908ZM75.9266 18.9463C75.3993 19.874 74.3739 20.4014 73.1044 20.4014C71.0829 20.4014 69.7157 19.1318 69.7157 17.2471C69.7157 15.333 71.1317 14.1514 73.4852 14.1514H75.9462V13.3018C75.9462 12.2568 75.2919 11.71 74.1102 11.71C73.329 11.71 72.7723 12.0029 72.1962 12.5205C71.9032 12.7549 71.6298 12.8623 71.2098 12.8623C70.6434 12.8623 70.2919 12.4814 70.2919 11.9541C70.2919 11.3486 70.7118 10.7334 71.62 10.2744C72.2743 9.93262 73.1434 9.7373 74.2762 9.7373C76.9911 9.7373 78.5145 11.0264 78.5145 13.3213V18.9854C78.5145 19.8643 78.0653 20.3623 77.2645 20.3623C76.5809 20.3623 76.1317 19.9814 76.0536 19.3076V18.9463H75.9266ZM83.5048 18.9463C83.5048 19.8447 83.036 20.3623 82.1962 20.3623C81.3661 20.3623 80.9364 19.8447 80.9364 18.9463V11.2314C80.9364 10.3232 81.3954 9.80566 82.2059 9.80566C82.9677 9.80566 83.3973 10.2549 83.4462 11.0557V11.2998H83.5536C83.9735 10.2842 84.7352 9.7373 85.7118 9.7373C86.0927 9.7373 86.3954 9.83496 86.62 10.0205C86.8641 10.2158 86.9911 10.5088 86.9911 10.8799C86.9911 11.2607 86.8739 11.5342 86.62 11.7197C86.4149 11.876 86.1024 11.9541 85.6825 11.9639C84.2372 11.9932 83.5048 12.7842 83.5048 14.3564V18.9463ZM89.745 17.4912V11.9932H89.2177C88.5243 11.9932 88.1239 11.6123 88.1239 10.9873C88.1239 10.3623 88.5243 9.98145 89.2177 9.98145H89.7938V8.63379C89.7938 7.74512 90.2528 7.24707 91.0438 7.24707C91.8446 7.24707 92.3036 7.74512 92.3036 8.63379V9.98145H93.329C94.0321 9.98145 94.4325 10.3623 94.4325 10.9873C94.4325 11.6123 94.0321 11.9932 93.329 11.9932H92.3231V17.208C92.3231 18.1455 92.577 18.458 93.3485 18.458C93.6219 18.458 93.7977 18.4189 94.0321 18.4189C94.4813 18.4189 94.7938 18.7217 94.7938 19.2002C94.7938 19.5811 94.6278 19.9033 94.2665 20.1182C93.9052 20.3525 93.3778 20.4697 92.6747 20.4697C90.6337 20.4697 89.745 19.6104 89.745 17.4912Z" fill="black"/>
<path d="M40.5908 32.876V31.9873C40.5908 30.6592 41.3721 29.7803 42.7148 29.7803C43.0957 29.7803 43.5498 29.8535 43.9404 30.0879C44.2676 30.2832 44.5801 30.6104 44.5801 30.957C44.5801 31.1768 44.4531 31.3477 44.2188 31.3477C43.9893 31.3477 43.8818 31.1963 43.7842 31.0596C43.5303 30.7031 43.1787 30.5273 42.7246 30.5273C41.875 30.5273 41.4453 31.1475 41.4453 32.0312V32.832C41.4453 33.7061 41.8604 34.3408 42.7295 34.3408C43.1201 34.3408 43.501 34.2139 43.8037 33.8086C43.8916 33.6914 44.0137 33.5205 44.2334 33.5205C44.4141 33.5205 44.5947 33.6328 44.5947 33.9062C44.5947 34.2432 44.3164 34.5703 43.9404 34.7852C43.54 35.0195 43.1006 35.0879 42.7295 35.0879C41.3721 35.0879 40.5908 34.2188 40.5908 32.876ZM49.751 35.0488C49.4971 35.0488 49.3457 34.8779 49.3457 34.5801V31.1523H49.3213L47.0752 34.5264C46.792 34.9512 46.6699 35.0488 46.4014 35.0488C46.1426 35.0488 45.9863 34.8389 45.9863 34.4873V30.2881C45.9863 29.9951 46.1377 29.8193 46.3965 29.8193C46.6504 29.8193 46.8018 29.9951 46.8018 30.2881V33.7158H46.8262L49.0967 30.3418C49.3945 29.8975 49.4922 29.8145 49.7363 29.8145C50.0146 29.8145 50.1611 29.9951 50.1611 30.3369V34.5801C50.1611 34.8779 50.0098 35.0488 49.751 35.0488ZM51.5576 32.876V31.9873C51.5576 30.6592 52.3389 29.7803 53.6816 29.7803C54.0625 29.7803 54.5166 29.8535 54.9072 30.0879C55.2344 30.2832 55.5469 30.6104 55.5469 30.957C55.5469 31.1768 55.4199 31.3477 55.1855 31.3477C54.9561 31.3477 54.8486 31.1963 54.751 31.0596C54.4971 30.7031 54.1455 30.5273 53.6914 30.5273C52.8418 30.5273 52.4121 31.1475 52.4121 32.0312V32.832C52.4121 33.7061 52.8271 34.3408 53.6963 34.3408C54.0869 34.3408 54.4678 34.2139 54.7705 33.8086C54.8584 33.6914 54.9805 33.5205 55.2002 33.5205C55.3809 33.5205 55.5615 33.6328 55.5615 33.9062C55.5615 34.2432 55.2832 34.5703 54.9072 34.7852C54.5068 35.0195 54.0674 35.0879 53.6963 35.0879C52.3389 35.0879 51.5576 34.2188 51.5576 32.876ZM58.4961 35.0488C58.2568 35.0488 58.0811 34.8926 58.0811 34.5801V30.5566H56.7871C56.543 30.5566 56.3916 30.4248 56.3916 30.21C56.3916 30 56.543 29.8682 56.7871 29.8682H60.21C60.4541 29.8682 60.6055 30 60.6055 30.21C60.6055 30.4248 60.4541 30.5566 60.21 30.5566H58.9209V34.5801C58.9209 34.8975 58.7354 35.0488 58.4961 35.0488ZM61.4404 32.8467V32.0361C61.4404 30.708 62.3193 29.7803 63.584 29.7803C64.8096 29.7803 65.6689 30.6738 65.6689 31.9336C65.6689 32.4902 65.5713 32.6465 65.21 32.6465H62.29V32.915C62.2949 33.8037 62.8271 34.3604 63.7061 34.3604C64.1406 34.3604 64.4775 34.2285 64.751 33.9648C65.0146 33.7207 65.0732 33.6816 65.2148 33.6816C65.4004 33.6816 65.542 33.833 65.542 34.0381C65.542 34.1895 65.4492 34.375 65.3027 34.5264C64.9805 34.873 64.3555 35.0879 63.667 35.0879C62.29 35.0879 61.4404 34.2334 61.4404 32.8467ZM62.29 31.9629H64.834V31.9482C64.834 31.0645 64.3506 30.5029 63.5938 30.5029C62.8174 30.5029 62.29 31.0889 62.29 31.9482V31.9629ZM72.0557 35.0488C71.8213 35.0488 71.6553 34.8975 71.6553 34.585V31.4502H71.6309L70.3027 34.1797C70.166 34.4629 70 34.5898 69.7705 34.5898C69.5361 34.5898 69.3701 34.4678 69.2285 34.1797L67.8955 31.4502H67.8711V34.585C67.8711 34.8975 67.7051 35.0488 67.4707 35.0488C67.2314 35.0488 67.0654 34.8975 67.0654 34.585V30.3711C67.0654 30.0098 67.2852 29.8291 67.5537 29.8291C67.832 29.8291 68.0273 29.9707 68.2129 30.3613L69.7607 33.667H69.7852L71.333 30.3613C71.5186 29.9658 71.7139 29.8291 71.9922 29.8291C72.2607 29.8291 72.4609 30.0098 72.4609 30.3711V34.585C72.4609 34.8975 72.2949 35.0488 72.0557 35.0488ZM74.6338 33.4863C74.6338 34.0186 75.0537 34.3799 75.6787 34.3799C76.3867 34.3799 76.9385 33.8916 76.9385 33.252V32.6709H75.625C74.9951 32.6709 74.6338 32.9639 74.6338 33.4863ZM76.9287 34.3164C76.6211 34.8145 76.0986 35.083 75.4492 35.083C74.4482 35.083 73.7744 34.4482 73.7744 33.5059C73.7744 32.5732 74.4531 31.9922 75.5811 31.9922H76.9385V31.4941C76.9385 30.835 76.543 30.498 75.8057 30.498C75.3711 30.498 75.0781 30.6494 74.7705 31.001C74.6533 31.1377 74.541 31.1865 74.3896 31.1865C74.1943 31.1865 74.0625 31.0547 74.0625 30.8545C74.0625 30.5664 74.2627 30.2832 74.6729 30.0488C74.9707 29.8779 75.3564 29.7852 75.8594 29.7852C77.0947 29.7852 77.7783 30.3906 77.7783 31.4893V34.585C77.7783 34.8779 77.627 35.0488 77.3682 35.0488C77.1191 35.0488 76.9727 34.8828 76.9629 34.6045V34.3164H76.9287ZM80.9668 36.4551C80.9668 36.2646 81.123 36.1328 81.3574 36.1328C81.4258 36.1328 81.5186 36.1426 81.626 36.1426C81.9629 36.1426 82.2705 35.8398 82.4023 35.376C82.4023 35.3711 82.4854 35.083 82.4854 35.0781L80.835 30.5566C80.791 30.4395 80.7715 30.3369 80.7715 30.2588C80.7715 30.0293 80.9521 29.8535 81.2012 29.8535C81.4062 29.8535 81.5527 29.9902 81.6406 30.2783L82.9053 34.165H82.9443L84.209 30.2783C84.2969 29.9902 84.4434 29.8535 84.6436 29.8535C84.8828 29.8535 85.0586 30.0244 85.0586 30.2539C85.0586 30.332 85.0391 30.4297 84.9902 30.5566L83.2617 35.3809C82.8857 36.4355 82.3779 36.8506 81.582 36.8506C81.3525 36.8506 81.1621 36.792 81.0596 36.6943C80.9961 36.6309 80.9668 36.5527 80.9668 36.4551ZM89.3994 34.5801V30.5566H87.0361V34.5801C87.0361 34.8975 86.8555 35.0488 86.6162 35.0488C86.3721 35.0488 86.1963 34.8926 86.1963 34.5801V30.498C86.1963 30.0684 86.4209 29.8682 86.9092 29.8682H89.5264C90.0146 29.8682 90.2393 30.0684 90.2393 30.498V34.5801C90.2393 34.8926 90.0635 35.0488 89.8242 35.0488C89.5801 35.0488 89.3994 34.8975 89.3994 34.5801ZM92.6709 32.9395C92.6709 33.7744 93.2275 34.3506 94.0332 34.3506C94.8633 34.3506 95.3418 33.75 95.3418 32.71V32.1533C95.3418 31.1084 94.8633 30.5176 94.0088 30.5176C93.1836 30.5176 92.6709 31.084 92.6709 32.0215V32.9395ZM92.6709 36.4062C92.6709 36.6992 92.5146 36.875 92.251 36.875C91.9873 36.875 91.8311 36.6992 91.8311 36.4062V30.2881C91.8311 29.9902 91.9775 29.8193 92.2314 29.8193C92.4854 29.8193 92.6318 29.9854 92.6318 30.2783V30.6836H92.6758C92.8857 30.127 93.4814 29.7852 94.2188 29.7852C95.4248 29.7852 96.1865 30.6348 96.1865 31.9775V32.8857C96.1865 34.2383 95.415 35.083 94.1895 35.083C93.4814 35.083 92.9492 34.7803 92.7148 34.2432H92.6709V36.4062ZM98.1396 33.4863C98.1396 34.0186 98.5596 34.3799 99.1846 34.3799C99.8926 34.3799 100.444 33.8916 100.444 33.252V32.6709H99.1309C98.501 32.6709 98.1396 32.9639 98.1396 33.4863ZM100.435 34.3164C100.127 34.8145 99.6045 35.083 98.9551 35.083C97.9541 35.083 97.2803 34.4482 97.2803 33.5059C97.2803 32.5732 97.959 31.9922 99.0869 31.9922H100.444V31.4941C100.444 30.835 100.049 30.498 99.3115 30.498C98.877 30.498 98.584 30.6494 98.2764 31.001C98.1592 31.1377 98.0469 31.1865 97.8955 31.1865C97.7002 31.1865 97.5684 31.0547 97.5684 30.8545C97.5684 30.5664 97.7686 30.2832 98.1787 30.0488C98.4766 29.8779 98.8623 29.7852 99.3652 29.7852C100.601 29.7852 101.284 30.3906 101.284 31.4893V34.585C101.284 34.8779 101.133 35.0488 100.874 35.0488C100.625 35.0488 100.479 34.8828 100.469 34.6045V34.3164H100.435ZM103.657 30.5371V32.0312H104.619C105.308 32.0312 105.674 31.8115 105.674 31.2451C105.674 30.752 105.293 30.5371 104.81 30.5371H103.657ZM103.657 32.6904V34.3311H104.766C105.444 34.3311 105.962 34.1699 105.962 33.5205C105.962 32.9639 105.518 32.6904 104.883 32.6904H103.657ZM103.53 29.8682H104.932C105.869 29.8682 106.509 30.3809 106.509 31.1816C106.509 31.7578 106.201 32.1387 105.684 32.2803V32.3047C106.411 32.4072 106.797 32.8906 106.797 33.5596C106.797 34.4971 106.001 35 104.858 35H103.53C103.042 35 102.817 34.7998 102.817 34.375V30.498C102.817 30.0684 103.042 29.8682 103.53 29.8682ZM111.099 34.5801V30.5566H109.292L109.263 31.7822C109.199 34.3994 108.975 35.0537 107.944 35.0537C107.749 35.0537 107.588 35.0049 107.471 34.917C107.378 34.8389 107.329 34.7314 107.329 34.6143C107.329 34.4189 107.446 34.2969 107.632 34.292C107.72 34.2822 107.783 34.2871 107.886 34.2822C108.379 34.2773 108.472 33.7451 108.486 31.7822L108.496 30.498C108.501 30.0684 108.721 29.8682 109.204 29.8682H111.226C111.714 29.8682 111.938 30.0684 111.938 30.498V34.5801C111.938 34.873 111.777 35.0488 111.519 35.0488C111.26 35.0488 111.099 34.8682 111.099 34.5801ZM113.325 32.8467V32.0361C113.325 30.708 114.204 29.7803 115.469 29.7803C116.694 29.7803 117.554 30.6738 117.554 31.9336C117.554 32.4902 117.456 32.6465 117.095 32.6465H114.175V32.915C114.18 33.8037 114.712 34.3604 115.591 34.3604C116.025 34.3604 116.362 34.2285 116.636 33.9648C116.899 33.7207 116.958 33.6816 117.1 33.6816C117.285 33.6816 117.427 33.833 117.427 34.0381C117.427 34.1895 117.334 34.375 117.188 34.5264C116.865 34.873 116.24 35.0879 115.552 35.0879C114.175 35.0879 113.325 34.2334 113.325 32.8467ZM114.175 31.9629H116.719V31.9482C116.719 31.0645 116.235 30.5029 115.479 30.5029C114.702 30.5029 114.175 31.0889 114.175 31.9482V31.9629ZM122.192 34.5801V32.6855H119.78V34.5801C119.78 34.8975 119.6 35.0488 119.36 35.0488C119.116 35.0488 118.94 34.8926 118.94 34.5801V30.2881C118.94 29.9707 119.121 29.8193 119.365 29.8193C119.604 29.8193 119.78 29.9756 119.78 30.2881V32.002H122.192V30.2881C122.192 29.9707 122.373 29.8193 122.617 29.8193C122.856 29.8193 123.032 29.9756 123.032 30.2881V34.5801C123.032 34.8975 122.852 35.0488 122.612 35.0488C122.368 35.0488 122.192 34.8926 122.192 34.5801ZM128.394 35.0488C128.14 35.0488 127.988 34.8779 127.988 34.5801V31.1523H127.964L125.718 34.5264C125.435 34.9512 125.312 35.0488 125.044 35.0488C124.785 35.0488 124.629 34.8389 124.629 34.4873V30.2881C124.629 29.9951 124.78 29.8193 125.039 29.8193C125.293 29.8193 125.444 29.9951 125.444 30.2881V33.7158H125.469L127.739 30.3418C128.037 29.8975 128.135 29.8145 128.379 29.8145C128.657 29.8145 128.804 29.9951 128.804 30.3369V34.5801C128.804 34.8779 128.652 35.0488 128.394 35.0488ZM133.633 35.0488C133.374 35.0488 133.213 34.8682 133.213 34.5801V33.1592H132.383L131.294 34.6338C131.04 34.9756 130.942 35.0488 130.718 35.0488C130.503 35.0488 130.347 34.9121 130.347 34.7217C130.347 34.5801 130.396 34.4678 130.557 34.2627L131.489 33.0273C130.737 32.8076 130.312 32.2607 130.312 31.5088C130.312 30.5078 131.069 29.8682 132.261 29.8682H133.34C133.828 29.8682 134.053 30.0684 134.053 30.498V34.5801C134.053 34.873 133.896 35.0488 133.633 35.0488ZM132.285 32.4854H133.213V30.5566H132.28C131.597 30.5566 131.147 30.9424 131.147 31.5283C131.147 32.1094 131.592 32.4854 132.285 32.4854ZM41.5088 41.8682H43.6084C43.8525 41.8682 44.0039 42 44.0039 42.21C44.0039 42.4248 43.8525 42.5566 43.6084 42.5566H41.6357V46.5801C41.6357 46.8975 41.4551 47.0488 41.2158 47.0488C40.9717 47.0488 40.7959 46.8926 40.7959 46.5801V42.498C40.7959 42.0684 41.0205 41.8682 41.5088 41.8682ZM47.0947 41.7803C48.3545 41.7803 49.2969 42.6055 49.2969 44.041V44.8223C49.2969 46.2627 48.3545 47.0879 47.0947 47.0879C45.8301 47.0879 44.8877 46.2627 44.8877 44.8223V44.041C44.8877 42.6055 45.8301 41.7803 47.0947 41.7803ZM47.0947 42.5127C46.2646 42.5127 45.7373 43.1475 45.7373 44.1143V44.749C45.7373 45.7402 46.2646 46.3604 47.0947 46.3604C47.9248 46.3604 48.4424 45.7402 48.4424 44.749V44.1143C48.4424 43.1475 47.9248 42.5127 47.0947 42.5127ZM50.4834 44.876V43.9873C50.4834 42.6592 51.2646 41.7803 52.6074 41.7803C52.9883 41.7803 53.4424 41.8535 53.833 42.0879C54.1602 42.2832 54.4727 42.6104 54.4727 42.957C54.4727 43.1768 54.3457 43.3477 54.1113 43.3477C53.8818 43.3477 53.7744 43.1963 53.6768 43.0596C53.4229 42.7031 53.0713 42.5273 52.6172 42.5273C51.7676 42.5273 51.3379 43.1475 51.3379 44.0312V44.832C51.3379 45.7061 51.7529 46.3408 52.6221 46.3408C53.0127 46.3408 53.3936 46.2139 53.6963 45.8086C53.7842 45.6914 53.9062 45.5205 54.126 45.5205C54.3066 45.5205 54.4873 45.6328 54.4873 45.9062C54.4873 46.2432 54.209 46.5703 53.833 46.7852C53.4326 47.0195 52.9932 47.0879 52.6221 47.0879C51.2646 47.0879 50.4834 46.2188 50.4834 44.876ZM57.4219 47.0488C57.1826 47.0488 57.0068 46.8926 57.0068 46.5801V42.5566H55.7129C55.4688 42.5566 55.3174 42.4248 55.3174 42.21C55.3174 42 55.4688 41.8682 55.7129 41.8682H59.1357C59.3799 41.8682 59.5312 42 59.5312 42.21C59.5312 42.4248 59.3799 42.5566 59.1357 42.5566H57.8467V46.5801C57.8467 46.8975 57.6611 47.0488 57.4219 47.0488ZM64.3408 47.0488C64.0869 47.0488 63.9355 46.8779 63.9355 46.5801V43.1523H63.9111L61.665 46.5264C61.3818 46.9512 61.2598 47.0488 60.9912 47.0488C60.7324 47.0488 60.5762 46.8389 60.5762 46.4873V42.2881C60.5762 41.9951 60.7275 41.8193 60.9863 41.8193C61.2402 41.8193 61.3916 41.9951 61.3916 42.2881V45.7158H61.416L63.6865 42.3418C63.9844 41.8975 64.082 41.8145 64.3262 41.8145C64.6045 41.8145 64.751 41.9951 64.751 42.3369V46.5801C64.751 46.8779 64.5996 47.0488 64.3408 47.0488ZM69.6045 46.5801V44.6855H67.1924V46.5801C67.1924 46.8975 67.0117 47.0488 66.7725 47.0488C66.5283 47.0488 66.3525 46.8926 66.3525 46.5801V42.2881C66.3525 41.9707 66.5332 41.8193 66.7773 41.8193C67.0166 41.8193 67.1924 41.9756 67.1924 42.2881V44.002H69.6045V42.2881C69.6045 41.9707 69.7852 41.8193 70.0293 41.8193C70.2686 41.8193 70.4443 41.9756 70.4443 42.2881V46.5801C70.4443 46.8975 70.2637 47.0488 70.0244 47.0488C69.7803 47.0488 69.6045 46.8926 69.6045 46.5801ZM75.8057 47.0488C75.5518 47.0488 75.4004 46.8779 75.4004 46.5801V43.1523H75.376L73.1299 46.5264C72.8467 46.9512 72.7246 47.0488 72.4561 47.0488C72.1973 47.0488 72.041 46.8389 72.041 46.4873V42.2881C72.041 41.9951 72.1924 41.8193 72.4512 41.8193C72.7051 41.8193 72.8564 41.9951 72.8564 42.2881V45.7158H72.8809L75.1514 42.3418C75.4492 41.8975 75.5469 41.8145 75.791 41.8145C76.0693 41.8145 76.2158 41.9951 76.2158 42.3369V46.5801C76.2158 46.8779 76.0645 47.0488 75.8057 47.0488ZM81.8604 46.3115C81.875 46.3164 81.958 46.3213 81.9629 46.3311C82.4902 46.3408 82.6807 46.5264 82.6807 47.0195V47.9619C82.6807 48.25 82.5586 48.3965 82.3096 48.3965C82.0557 48.3965 81.9385 48.25 81.9385 47.9619V47H78.5303C78.0469 47 77.8174 46.7998 77.8174 46.3701V42.2881C77.8174 41.9707 78.0029 41.8193 78.2422 41.8193C78.4814 41.8193 78.6572 41.9756 78.6572 42.2881V46.3115H81.0205V42.2881C81.0205 41.9707 81.2061 41.8193 81.4453 41.8193C81.6846 41.8193 81.8604 41.9756 81.8604 42.2881V46.3115ZM83.6084 44.8467V44.0361C83.6084 42.708 84.4873 41.7803 85.752 41.7803C86.9775 41.7803 87.8369 42.6738 87.8369 43.9336C87.8369 44.4902 87.7393 44.6465 87.3779 44.6465H84.458V44.915C84.4629 45.8037 84.9951 46.3604 85.874 46.3604C86.3086 46.3604 86.6455 46.2285 86.9189 45.9648C87.1826 45.7207 87.2412 45.6816 87.3828 45.6816C87.5684 45.6816 87.71 45.833 87.71 46.0381C87.71 46.1895 87.6172 46.375 87.4707 46.5264C87.1484 46.873 86.5234 47.0879 85.835 47.0879C84.458 47.0879 83.6084 46.2334 83.6084 44.8467ZM84.458 43.9629H87.002V43.9482C87.002 43.0645 86.5186 42.5029 85.7617 42.5029C84.9854 42.5029 84.458 43.0889 84.458 43.9482V43.9629ZM92.9932 47.0488C92.7393 47.0488 92.5879 46.8779 92.5879 46.5801V43.1523H92.5635L90.3174 46.5264C90.0342 46.9512 89.9121 47.0488 89.6436 47.0488C89.3848 47.0488 89.2285 46.8389 89.2285 46.4873V42.2881C89.2285 41.9951 89.3799 41.8193 89.6387 41.8193C89.8926 41.8193 90.0439 41.9951 90.0439 42.2881V45.7158H90.0684L92.3389 42.3418C92.6367 41.8975 92.7344 41.8145 92.9785 41.8145C93.2568 41.8145 93.4033 41.9951 93.4033 42.3369V46.5801C93.4033 46.8779 93.252 47.0488 92.9932 47.0488ZM89.8584 40.0811C89.8584 39.9053 89.9707 39.7881 90.1367 39.7881C90.2686 39.7881 90.3564 39.8564 90.4199 40.0029C90.6152 40.4277 90.918 40.6475 91.3672 40.6475C91.8115 40.6475 92.1191 40.4277 92.3096 40.0078C92.373 39.8613 92.4561 39.7881 92.5928 39.7881C92.7637 39.7881 92.8711 39.9053 92.8711 40.0811C92.8711 40.2861 92.7197 40.5596 92.4805 40.7793C92.2217 41.0234 91.8213 41.165 91.3672 41.165C90.9229 41.165 90.5176 41.0283 90.2539 40.7891C90.0146 40.5645 89.8584 40.291 89.8584 40.0811Z" fill="black"/>
<defs>
<clipPath id="clip0_1602_11">
<rect width="30" height="51" fill="white"/>
</clipPath>
</defs>
</svg>
