<svg width="123" height="51" viewBox="0 0 123 51" fill="none" xmlns="http://www.w3.org/2000/svg">
<g clip-path="url(#clip0_1602_20)">
<path d="M25.9508 25.7835L13.5206 21.0022C11.1846 20.1041 9.47459 17.8609 9.47459 15.026C9.51801 11.9767 11.9881 9.48787 14.9811 9.47701C18.1519 9.47701 20.5261 12.0418 20.5261 15.0033C20.5261 17.5868 22.6172 19.7568 25.3044 19.7401C27.9126 19.7174 30.0185 17.5424 29.9999 14.8908C29.9701 10.9267 28.41 7.1994 25.6064 4.39679C19.7465 -1.4651 10.2543 -1.46609 4.39338 4.39679C1.56018 7.229 0 10.9957 0 15.0033V45.7925C0 48.4047 2.12465 50.5293 4.7368 50.5293H25.263C27.8751 50.5293 29.9999 48.4047 29.9999 45.7925V31.6778C29.9999 29.0834 28.3725 26.714 25.9508 25.7835ZM22.0064 44.2136H7.89467C7.02231 44.2136 6.31574 43.507 6.31574 42.6346C6.31574 41.7623 7.02231 41.0557 7.89467 41.0557H22.0064C22.8788 41.0557 23.5853 41.7623 23.5853 42.6346C23.5853 43.507 22.8788 44.2136 22.0064 44.2136ZM22.0064 37.8978H7.89467C7.02231 37.8978 6.31574 37.1913 6.31574 36.3189C6.31574 35.4465 7.02231 34.74 7.89467 34.74H22.0064C22.8788 34.74 23.5853 35.4465 23.5853 36.3189C23.5853 37.1913 22.8788 37.8978 22.0064 37.8978Z" fill="#1C45E9"/>
</g>
<path d="M40.5458 17.5205C40.5458 16.8564 41.0048 16.3877 41.6005 16.3877C42.0399 16.3877 42.4012 16.5732 42.87 17.0811C43.6219 17.9502 44.618 18.3994 45.7802 18.3994C47.3427 18.3994 48.2313 17.7744 48.2313 16.6904C48.2313 15.792 47.6063 15.2354 46.161 14.8936L44.1688 14.4053C41.8739 13.8779 40.7313 12.6572 40.7313 10.7236C40.7313 8.27246 42.6649 6.68066 45.6337 6.68066C47.2255 6.68066 48.6512 7.13965 49.5302 7.9502C50.1356 8.49707 50.4579 9.12207 50.4579 9.7373C50.4579 10.3525 50.0282 10.7725 49.3934 10.7725C48.9833 10.7725 48.6317 10.5967 48.3192 10.2061C47.7235 9.31738 46.8251 8.81934 45.6727 8.81934C44.286 8.81934 43.3973 9.4834 43.3973 10.5186C43.3973 11.3486 44.0028 11.9346 45.243 12.2178L47.245 12.6963C49.6864 13.2529 50.8387 14.4346 50.8387 16.3975C50.8387 18.9365 48.8173 20.5479 45.6337 20.5479C43.9052 20.5479 42.3719 20.0693 41.493 19.2393C40.8778 18.6729 40.5458 18.0771 40.5458 17.5205ZM67.7333 18.9463C67.7333 19.8643 67.2645 20.3623 66.4442 20.3623C65.6239 20.3623 65.1649 19.8643 65.1649 18.9463V13.7998C65.1649 12.5693 64.5009 11.8662 63.3876 11.8662C62.2841 11.8662 61.5321 12.6963 61.5321 13.9463V18.9463C61.5321 19.8643 61.0927 20.3623 60.2821 20.3623C59.4813 20.3623 59.0419 19.8643 59.0419 18.9463V13.8486C59.0419 12.6182 58.3485 11.8662 57.2352 11.8662C56.1415 11.8662 55.4091 12.6768 55.4091 13.9365V18.9463C55.4091 19.8643 54.9403 20.3623 54.12 20.3623C53.2997 20.3623 52.8309 19.8643 52.8309 18.9463V11.1924C52.8309 10.333 53.3192 9.80566 54.1005 9.80566C54.8524 9.80566 55.3114 10.3037 55.3505 11.1338V11.6221H55.4774C55.8192 10.46 56.9032 9.7373 58.3094 9.7373C59.7645 9.7373 60.8192 10.4795 61.161 11.6904H61.2782C61.7274 10.4893 62.8993 9.7373 64.3934 9.7373C66.4833 9.7373 67.7333 10.9775 67.7333 13.0283V18.9463ZM72.2743 17.0908C72.2743 17.9502 72.9579 18.5459 73.9637 18.5459C75.077 18.5459 75.9462 17.7842 75.9462 16.8076V15.7334H73.954C72.8993 15.7334 72.2743 16.2412 72.2743 17.0908ZM75.9266 18.9463C75.3993 19.874 74.3739 20.4014 73.1044 20.4014C71.0829 20.4014 69.7157 19.1318 69.7157 17.2471C69.7157 15.333 71.1317 14.1514 73.4852 14.1514H75.9462V13.3018C75.9462 12.2568 75.2919 11.71 74.1102 11.71C73.329 11.71 72.7723 12.0029 72.1962 12.5205C71.9032 12.7549 71.6298 12.8623 71.2098 12.8623C70.6434 12.8623 70.2919 12.4814 70.2919 11.9541C70.2919 11.3486 70.7118 10.7334 71.62 10.2744C72.2743 9.93262 73.1434 9.7373 74.2762 9.7373C76.9911 9.7373 78.5145 11.0264 78.5145 13.3213V18.9854C78.5145 19.8643 78.0653 20.3623 77.2645 20.3623C76.5809 20.3623 76.1317 19.9814 76.0536 19.3076V18.9463H75.9266ZM83.5048 18.9463C83.5048 19.8447 83.036 20.3623 82.1962 20.3623C81.3661 20.3623 80.9364 19.8447 80.9364 18.9463V11.2314C80.9364 10.3232 81.3954 9.80566 82.2059 9.80566C82.9677 9.80566 83.3973 10.2549 83.4462 11.0557V11.2998H83.5536C83.9735 10.2842 84.7352 9.7373 85.7118 9.7373C86.0927 9.7373 86.3954 9.83496 86.62 10.0205C86.8641 10.2158 86.9911 10.5088 86.9911 10.8799C86.9911 11.2607 86.8739 11.5342 86.62 11.7197C86.4149 11.876 86.1024 11.9541 85.6825 11.9639C84.2372 11.9932 83.5048 12.7842 83.5048 14.3564V18.9463ZM89.745 17.4912V11.9932H89.2177C88.5243 11.9932 88.1239 11.6123 88.1239 10.9873C88.1239 10.3623 88.5243 9.98145 89.2177 9.98145H89.7938V8.63379C89.7938 7.74512 90.2528 7.24707 91.0438 7.24707C91.8446 7.24707 92.3036 7.74512 92.3036 8.63379V9.98145H93.329C94.0321 9.98145 94.4325 10.3623 94.4325 10.9873C94.4325 11.6123 94.0321 11.9932 93.329 11.9932H92.3231V17.208C92.3231 18.1455 92.577 18.458 93.3485 18.458C93.6219 18.458 93.7977 18.4189 94.0321 18.4189C94.4813 18.4189 94.7938 18.7217 94.7938 19.2002C94.7938 19.5811 94.6278 19.9033 94.2665 20.1182C93.9052 20.3525 93.3778 20.4697 92.6747 20.4697C90.6337 20.4697 89.745 19.6104 89.745 17.4912Z" fill="black"/>
<path d="M47.7393 34.5801C47.7393 34.873 47.583 35.0488 47.3193 35.0488C47.0557 35.0488 46.8994 34.873 46.8994 34.5801V31.6064C46.8994 30.918 46.4941 30.5225 45.8154 30.5225C45.1514 30.5225 44.6631 31.0205 44.6631 31.7188V34.5801C44.6631 34.873 44.5068 35.0488 44.2432 35.0488C43.9795 35.0488 43.8281 34.873 43.8281 34.5801V31.6406C43.8281 30.9521 43.3887 30.5225 42.7197 30.5225C42.0605 30.5225 41.5869 31.0059 41.5869 31.709V34.5801C41.5869 34.873 41.4307 35.0488 41.167 35.0488C40.9033 35.0488 40.7471 34.873 40.7471 34.5801V30.2881C40.7471 29.9951 40.9082 29.8193 41.167 29.8193C41.4258 29.8193 41.582 29.9951 41.582 30.2832V30.6836H41.626C41.8164 30.1123 42.3242 29.7852 43.0176 29.7852C43.7305 29.7852 44.2676 30.1514 44.4482 30.752H44.4824C44.7363 30.1367 45.3076 29.7852 46.0449 29.7852C47.1191 29.7852 47.7393 30.3711 47.7393 31.3867V34.5801ZM48.8672 36.4551C48.8672 36.2646 49.0234 36.1328 49.2578 36.1328C49.3262 36.1328 49.4189 36.1426 49.5264 36.1426C49.8633 36.1426 50.1709 35.8398 50.3027 35.376C50.3027 35.3711 50.3857 35.083 50.3857 35.0781L48.7354 30.5566C48.6914 30.4395 48.6719 30.3369 48.6719 30.2588C48.6719 30.0293 48.8525 29.8535 49.1016 29.8535C49.3066 29.8535 49.4531 29.9902 49.541 30.2783L50.8057 34.165H50.8447L52.1094 30.2783C52.1973 29.9902 52.3438 29.8535 52.5439 29.8535C52.7832 29.8535 52.959 30.0244 52.959 30.2539C52.959 30.332 52.9395 30.4297 52.8906 30.5566L51.1621 35.3809C50.7861 36.4355 50.2783 36.8506 49.4824 36.8506C49.2529 36.8506 49.0625 36.792 48.96 36.6943C48.8965 36.6309 48.8672 36.5527 48.8672 36.4551ZM58.1201 34.5801C58.1201 34.8682 57.9541 35.0488 57.6904 35.0488C57.4268 35.0488 57.2754 34.873 57.2754 34.5801V31.7529C57.2754 30.9668 56.8506 30.5273 56.123 30.5273C55.2881 30.5273 54.7559 31.1377 54.7559 32.1289V34.5801C54.7559 34.873 54.5947 35.0488 54.3311 35.0488C54.0674 35.0488 53.916 34.873 53.916 34.5801V28.4229C53.916 28.125 54.0723 27.9541 54.3311 27.9541C54.5947 27.9541 54.7559 28.125 54.7559 28.4229V30.8057H54.7998C54.9756 30.2051 55.6299 29.7852 56.3916 29.7852C57.4658 29.7852 58.1201 30.4346 58.1201 31.499V34.5801ZM66.5283 34.5801C66.5283 34.873 66.3721 35.0488 66.1084 35.0488C65.8447 35.0488 65.6885 34.873 65.6885 34.5801V31.6064C65.6885 30.918 65.2832 30.5225 64.6045 30.5225C63.9404 30.5225 63.4521 31.0205 63.4521 31.7188V34.5801C63.4521 34.873 63.2959 35.0488 63.0322 35.0488C62.7686 35.0488 62.6172 34.873 62.6172 34.5801V31.6406C62.6172 30.9521 62.1777 30.5225 61.5088 30.5225C60.8496 30.5225 60.376 31.0059 60.376 31.709V34.5801C60.376 34.873 60.2197 35.0488 59.9561 35.0488C59.6924 35.0488 59.5361 34.873 59.5361 34.5801V30.2881C59.5361 29.9951 59.6973 29.8193 59.9561 29.8193C60.2148 29.8193 60.3711 29.9951 60.3711 30.2832V30.6836H60.415C60.6055 30.1123 61.1133 29.7852 61.8066 29.7852C62.5195 29.7852 63.0566 30.1514 63.2373 30.752H63.2715C63.5254 30.1367 64.0967 29.7852 64.834 29.7852C65.9082 29.7852 66.5283 30.3711 66.5283 31.3867V34.5801ZM68.5693 33.4863C68.5693 34.0186 68.9893 34.3799 69.6143 34.3799C70.3223 34.3799 70.874 33.8916 70.874 33.252V32.6709H69.5605C68.9307 32.6709 68.5693 32.9639 68.5693 33.4863ZM70.8643 34.3164C70.5566 34.8145 70.0342 35.083 69.3848 35.083C68.3838 35.083 67.71 34.4482 67.71 33.5059C67.71 32.5732 68.3887 31.9922 69.5166 31.9922H70.874V31.4941C70.874 30.835 70.4785 30.498 69.7412 30.498C69.3066 30.498 69.0137 30.6494 68.7061 31.001C68.5889 31.1377 68.4766 31.1865 68.3252 31.1865C68.1299 31.1865 67.998 31.0547 67.998 30.8545C67.998 30.5664 68.1982 30.2832 68.6084 30.0488C68.9062 29.8779 69.292 29.7852 69.7949 29.7852C71.0303 29.7852 71.7139 30.3906 71.7139 31.4893V34.585C71.7139 34.8779 71.5625 35.0488 71.3037 35.0488C71.0547 35.0488 70.9082 34.8828 70.8984 34.6045V34.3164H70.8643ZM77.334 34.5801C77.334 34.873 77.1729 35.0488 76.9092 35.0488C76.6455 35.0488 76.4893 34.873 76.4893 34.5801V31.7432C76.4893 30.9473 76.0889 30.5273 75.3662 30.5273C74.5215 30.5273 73.9893 31.1279 73.9893 32.1289V34.5801C73.9893 34.873 73.833 35.0488 73.5693 35.0488C73.3057 35.0488 73.1494 34.873 73.1494 34.5801V30.2881C73.1494 29.9951 73.3105 29.8193 73.5693 29.8193C73.8281 29.8193 73.9844 29.9902 73.9844 30.2783V30.8057H74.0283C74.2432 30.1562 74.7998 29.7852 75.5859 29.7852C76.6943 29.7852 77.334 30.4102 77.334 31.4893V34.5801ZM82.9834 34.5801C82.9834 34.8682 82.8174 35.0488 82.5537 35.0488C82.29 35.0488 82.1387 34.873 82.1387 34.5801V31.7529C82.1387 30.9668 81.7139 30.5273 80.9863 30.5273C80.1514 30.5273 79.6191 31.1377 79.6191 32.1289V34.5801C79.6191 34.873 79.458 35.0488 79.1943 35.0488C78.9307 35.0488 78.7793 34.873 78.7793 34.5801V28.4229C78.7793 28.125 78.9355 27.9541 79.1943 27.9541C79.458 27.9541 79.6191 28.125 79.6191 28.4229V30.8057H79.6631C79.8389 30.2051 80.4932 29.7852 81.2549 29.7852C82.3291 29.7852 82.9834 30.4346 82.9834 31.499V34.5801ZM84.9658 33.4863C84.9658 34.0186 85.3857 34.3799 86.0107 34.3799C86.7188 34.3799 87.2705 33.8916 87.2705 33.252V32.6709H85.957C85.3271 32.6709 84.9658 32.9639 84.9658 33.4863ZM87.2607 34.3164C86.9531 34.8145 86.4307 35.083 85.7812 35.083C84.7803 35.083 84.1064 34.4482 84.1064 33.5059C84.1064 32.5732 84.7852 31.9922 85.9131 31.9922H87.2705V31.4941C87.2705 30.835 86.875 30.498 86.1377 30.498C85.7031 30.498 85.4102 30.6494 85.1025 31.001C84.9854 31.1377 84.873 31.1865 84.7217 31.1865C84.5264 31.1865 84.3945 31.0547 84.3945 30.8545C84.3945 30.5664 84.5947 30.2832 85.0049 30.0488C85.3027 29.8779 85.6885 29.7852 86.1914 29.7852C87.4268 29.7852 88.1104 30.3906 88.1104 31.4893V34.585C88.1104 34.8779 87.959 35.0488 87.7002 35.0488C87.4512 35.0488 87.3047 34.8828 87.2949 34.6045V34.3164H87.2607ZM93.7305 34.5801C93.7305 34.873 93.5693 35.0488 93.3057 35.0488C93.042 35.0488 92.8857 34.873 92.8857 34.5801V31.7432C92.8857 30.9473 92.4854 30.5273 91.7627 30.5273C90.918 30.5273 90.3857 31.1279 90.3857 32.1289V34.5801C90.3857 34.873 90.2295 35.0488 89.9658 35.0488C89.7021 35.0488 89.5459 34.873 89.5459 34.5801V30.2881C89.5459 29.9951 89.707 29.8193 89.9658 29.8193C90.2246 29.8193 90.3809 29.9902 90.3809 30.2783V30.8057H90.4248C90.6396 30.1562 91.1963 29.7852 91.9824 29.7852C93.0908 29.7852 93.7305 30.4102 93.7305 31.4893V34.5801ZM95.7275 33.4863C95.7275 34.0186 96.1475 34.3799 96.7725 34.3799C97.4805 34.3799 98.0322 33.8916 98.0322 33.252V32.6709H96.7188C96.0889 32.6709 95.7275 32.9639 95.7275 33.4863ZM98.0225 34.3164C97.7148 34.8145 97.1924 35.083 96.543 35.083C95.542 35.083 94.8682 34.4482 94.8682 33.5059C94.8682 32.5732 95.5469 31.9922 96.6748 31.9922H98.0322V31.4941C98.0322 30.835 97.6367 30.498 96.8994 30.498C96.4648 30.498 96.1719 30.6494 95.8643 31.001C95.7471 31.1377 95.6348 31.1865 95.4834 31.1865C95.2881 31.1865 95.1562 31.0547 95.1562 30.8545C95.1562 30.5664 95.3564 30.2832 95.7666 30.0488C96.0645 29.8779 96.4502 29.7852 96.9531 29.7852C98.1885 29.7852 98.8721 30.3906 98.8721 31.4893V34.585C98.8721 34.8779 98.7207 35.0488 98.4619 35.0488C98.2129 35.0488 98.0664 34.8828 98.0566 34.6045V34.3164H98.0225ZM41.3965 44.7588C41.3965 45.7598 41.8848 46.3506 42.7197 46.3506C43.5449 46.3506 44.0723 45.7695 44.0723 44.8467V43.9238C44.0723 43.1084 43.4912 42.5176 42.6904 42.5176C41.875 42.5176 41.3965 43.1182 41.3965 44.1094V44.7588ZM44.0674 46.1895C43.9209 46.707 43.2764 47.083 42.5195 47.083C41.3184 47.083 40.542 46.2383 40.542 44.9492V43.9238C40.542 42.6299 41.3379 41.7852 42.5439 41.7852C43.2617 41.7852 43.8281 42.1025 44.0332 42.625H44.0723V40.4229C44.0723 40.125 44.2285 39.9541 44.4922 39.9541C44.7559 39.9541 44.9121 40.125 44.9121 40.4229V46.5801C44.9121 46.8779 44.7705 47.0488 44.5117 47.0488C44.2578 47.0488 44.1162 46.8828 44.1113 46.5898V46.1895H44.0674ZM48.4424 41.7803C49.7021 41.7803 50.6445 42.6055 50.6445 44.041V44.8223C50.6445 46.2627 49.7021 47.0879 48.4424 47.0879C47.1777 47.0879 46.2354 46.2627 46.2354 44.8223V44.041C46.2354 42.6055 47.1777 41.7803 48.4424 41.7803ZM48.4424 42.5127C47.6123 42.5127 47.085 43.1475 47.085 44.1143V44.749C47.085 45.7402 47.6123 46.3604 48.4424 46.3604C49.2725 46.3604 49.79 45.7402 49.79 44.749V44.1143C49.79 43.1475 49.2725 42.5127 48.4424 42.5127ZM52.3877 47.0488C52.1484 47.0488 51.9727 46.8975 51.9727 46.5801V40.4229C51.9727 40.1055 52.1484 39.9541 52.3877 39.9541C52.627 39.9541 52.8076 40.1055 52.8076 40.4229V46.5801C52.8076 46.8975 52.627 47.0488 52.3877 47.0488ZM54.9072 45.4863C54.9072 46.0186 55.3271 46.3799 55.9521 46.3799C56.6602 46.3799 57.2119 45.8916 57.2119 45.252V44.6709H55.8984C55.2686 44.6709 54.9072 44.9639 54.9072 45.4863ZM57.2021 46.3164C56.8945 46.8145 56.3721 47.083 55.7227 47.083C54.7217 47.083 54.0479 46.4482 54.0479 45.5059C54.0479 44.5732 54.7266 43.9922 55.8545 43.9922H57.2119V43.4941C57.2119 42.835 56.8164 42.498 56.0791 42.498C55.6445 42.498 55.3516 42.6494 55.0439 43.001C54.9268 43.1377 54.8145 43.1865 54.6631 43.1865C54.4678 43.1865 54.3359 43.0547 54.3359 42.8545C54.3359 42.5664 54.5361 42.2832 54.9463 42.0488C55.2441 41.8779 55.6299 41.7852 56.1328 41.7852C57.3682 41.7852 58.0518 42.3906 58.0518 43.4893V46.585C58.0518 46.8779 57.9004 47.0488 57.6416 47.0488C57.3926 47.0488 57.2461 46.8828 57.2363 46.6045V46.3164H57.2021ZM63.6719 46.5801C63.6719 46.873 63.5107 47.0488 63.2471 47.0488C62.9834 47.0488 62.8271 46.873 62.8271 46.5801V43.7432C62.8271 42.9473 62.4268 42.5273 61.7041 42.5273C60.8594 42.5273 60.3271 43.1279 60.3271 44.1289V46.5801C60.3271 46.873 60.1709 47.0488 59.9072 47.0488C59.6436 47.0488 59.4873 46.873 59.4873 46.5801V42.2881C59.4873 41.9951 59.6484 41.8193 59.9072 41.8193C60.166 41.8193 60.3223 41.9902 60.3223 42.2783V42.8057H60.3662C60.5811 42.1562 61.1377 41.7852 61.9238 41.7852C63.0322 41.7852 63.6719 42.4102 63.6719 43.4893V46.5801ZM65.752 44.7588C65.752 45.7598 66.2402 46.3506 67.0752 46.3506C67.9004 46.3506 68.4277 45.7695 68.4277 44.8467V43.9238C68.4277 43.1084 67.8467 42.5176 67.0459 42.5176C66.2305 42.5176 65.752 43.1182 65.752 44.1094V44.7588ZM68.4229 46.1895C68.2764 46.707 67.6318 47.083 66.875 47.083C65.6738 47.083 64.8975 46.2383 64.8975 44.9492V43.9238C64.8975 42.6299 65.6934 41.7852 66.8994 41.7852C67.6172 41.7852 68.1836 42.1025 68.3887 42.625H68.4277V40.4229C68.4277 40.125 68.584 39.9541 68.8477 39.9541C69.1113 39.9541 69.2676 40.125 69.2676 40.4229V46.5801C69.2676 46.8779 69.126 47.0488 68.8672 47.0488C68.6133 47.0488 68.4717 46.8828 68.4668 46.5898V46.1895H68.4229ZM70.5664 48.4551C70.5664 48.2646 70.7227 48.1328 70.957 48.1328C71.0254 48.1328 71.1182 48.1426 71.2256 48.1426C71.5625 48.1426 71.8701 47.8398 72.002 47.376C72.002 47.3711 72.085 47.083 72.085 47.0781L70.4346 42.5566C70.3906 42.4395 70.3711 42.3369 70.3711 42.2588C70.3711 42.0293 70.5518 41.8535 70.8008 41.8535C71.0059 41.8535 71.1523 41.9902 71.2402 42.2783L72.5049 46.165H72.5439L73.8086 42.2783C73.8965 41.9902 74.043 41.8535 74.2432 41.8535C74.4824 41.8535 74.6582 42.0244 74.6582 42.2539C74.6582 42.332 74.6387 42.4297 74.5898 42.5566L72.8613 47.3809C72.4854 48.4355 71.9775 48.8506 71.1816 48.8506C70.9521 48.8506 70.7617 48.792 70.6592 48.6943C70.5957 48.6309 70.5664 48.5527 70.5664 48.4551ZM76.5869 46.5801C76.5869 46.873 76.4355 47.0488 76.167 47.0488C75.9033 47.0488 75.7471 46.873 75.7471 46.5801V42.2881C75.7471 42 75.9131 41.8193 76.1719 41.8193C76.4307 41.8193 76.582 41.9951 76.582 42.2783V42.4736H76.6064C76.875 42.0146 77.2705 41.7852 77.7393 41.7852C77.8857 41.7852 78.0078 41.8145 78.1006 41.873C78.208 41.9365 78.2666 42.0488 78.2666 42.1807C78.2666 42.332 78.2129 42.4346 78.1006 42.498C78.0127 42.5469 77.8906 42.5664 77.7295 42.5664C76.9775 42.5713 76.5869 42.9766 76.5869 43.8213V46.5801ZM79.2383 48.4551C79.2383 48.2646 79.3945 48.1328 79.6289 48.1328C79.6973 48.1328 79.79 48.1426 79.8975 48.1426C80.2344 48.1426 80.542 47.8398 80.6738 47.376C80.6738 47.3711 80.7568 47.083 80.7568 47.0781L79.1064 42.5566C79.0625 42.4395 79.043 42.3369 79.043 42.2588C79.043 42.0293 79.2236 41.8535 79.4727 41.8535C79.6777 41.8535 79.8242 41.9902 79.9121 42.2783L81.1768 46.165H81.2158L82.4805 42.2783C82.5684 41.9902 82.7148 41.8535 82.915 41.8535C83.1543 41.8535 83.3301 42.0244 83.3301 42.2539C83.3301 42.332 83.3105 42.4297 83.2617 42.5566L81.5332 47.3809C81.1572 48.4355 80.6494 48.8506 79.8535 48.8506C79.624 48.8506 79.4336 48.792 79.3311 48.6943C79.2676 48.6309 79.2383 48.5527 79.2383 48.4551ZM85.8203 49.2559C85.6201 49.2559 85.4883 49.2314 85.4004 49.2021C85.2295 49.1484 85.1416 49.0557 85.1416 48.9189C85.1416 48.7627 85.2539 48.6846 85.3955 48.6846C85.5078 48.6846 85.6152 48.7334 85.7959 48.7334C86.0254 48.7334 86.3428 48.6504 86.3428 48.3379C86.3428 48.0449 86.0645 48.0254 85.835 48.0156C85.5762 48.0059 85.3662 47.957 85.3662 47.6934C85.3662 47.6348 85.3906 47.5469 85.5713 47.0684C85.1904 47.0244 84.8389 46.9121 84.5508 46.751C84.1846 46.541 83.9795 46.2529 83.9795 45.9551C83.9795 45.7207 84.1211 45.5791 84.3457 45.5791C84.4824 45.5791 84.585 45.6475 84.7559 45.8574C85.0684 46.2188 85.4688 46.3994 85.9912 46.3994C86.6504 46.3994 87.0654 46.1016 87.0654 45.6279C87.0654 45.2666 86.8018 44.9932 86.3525 44.8857L85.376 44.6611C84.4824 44.4561 84.0527 44.0068 84.0527 43.2842C84.0527 42.3711 84.7852 41.7803 85.9277 41.7803C86.4404 41.7803 86.9141 41.9121 87.2754 42.1514C87.583 42.3564 87.7734 42.6348 87.7734 42.8887C87.7734 43.1035 87.6318 43.2354 87.417 43.2354C87.2656 43.2354 87.1875 43.1865 86.9824 42.9766C86.6406 42.6104 86.3428 42.4688 85.8936 42.4688C85.2637 42.4688 84.8779 42.7568 84.8779 43.2305C84.8779 43.6016 85.1172 43.8262 85.6299 43.9531L86.582 44.1826C87.4756 44.3975 87.8906 44.832 87.8906 45.5596C87.8906 46.4434 87.2314 47.0195 86.1523 47.0781L85.9717 47.5664C86.5967 47.5176 87.0166 47.7959 87.0166 48.3525C87.0166 48.9873 86.4551 49.2559 85.8203 49.2559ZM94.3213 46.1504C94.165 46.5703 93.7402 47.083 92.7441 47.083C91.7969 47.083 91.04 46.624 91.04 45.4375V42.2686C91.04 41.9512 91.2207 41.8145 91.4648 41.8145C91.7041 41.8145 91.8848 41.9512 91.8848 42.2686V45.2227C91.8848 46.0723 92.3975 46.3457 92.9834 46.3457C93.8135 46.3457 94.3652 45.7939 94.3652 45.1348V42.2686C94.3652 41.9512 94.5459 41.8145 94.79 41.8145C95.0293 41.8145 95.21 41.9512 95.21 42.2686V46.5996C95.21 46.917 95.0293 47.0488 94.79 47.0488C94.5508 47.0488 94.3701 46.9121 94.3701 46.6094V46.1504H94.3213ZM97.1533 47.0488C96.9141 47.0488 96.7383 46.8975 96.7383 46.5801V40.4229C96.7383 40.1055 96.9141 39.9541 97.1533 39.9541C97.3926 39.9541 97.5732 40.1055 97.5732 40.4229V46.5801C97.5732 46.8975 97.3926 47.0488 97.1533 47.0488ZM102.383 46.1455C102.183 46.585 101.665 46.9512 100.923 46.9512C99.8096 46.9512 98.9062 46.1406 98.9062 44.8076V43.9385C98.9062 42.6055 99.8096 41.7852 100.913 41.7852C101.714 41.7852 102.246 42.2148 102.427 42.6396H102.466V42.2783C102.466 41.9658 102.627 41.8193 102.861 41.8193C103.101 41.8193 103.267 41.9707 103.267 42.2881V46.8535C103.267 48.2646 102.363 48.9287 101.084 48.9287C100.518 48.9287 100.015 48.8018 99.6484 48.5771C99.3359 48.3867 99.0967 48.1084 99.0967 47.835C99.0967 47.625 99.2383 47.4736 99.4531 47.4736C99.6582 47.4736 99.7559 47.6055 99.9121 47.752C100.107 47.9326 100.439 48.1914 101.05 48.1914C101.899 48.1914 102.432 47.6982 102.432 46.873V46.1455H102.383ZM99.7559 44.6416C99.7559 45.5889 100.322 46.2236 101.133 46.2236C101.978 46.2236 102.427 45.5352 102.427 44.8027V43.9678C102.427 43.2158 101.963 42.5176 101.104 42.5176C100.288 42.5176 99.7559 43.1621 99.7559 44.1094V44.6416ZM105.366 45.4863C105.366 46.0186 105.786 46.3799 106.411 46.3799C107.119 46.3799 107.671 45.8916 107.671 45.252V44.6709H106.357C105.728 44.6709 105.366 44.9639 105.366 45.4863ZM107.661 46.3164C107.354 46.8145 106.831 47.083 106.182 47.083C105.181 47.083 104.507 46.4482 104.507 45.5059C104.507 44.5732 105.186 43.9922 106.313 43.9922H107.671V43.4941C107.671 42.835 107.275 42.498 106.538 42.498C106.104 42.498 105.811 42.6494 105.503 43.001C105.386 43.1377 105.273 43.1865 105.122 43.1865C104.927 43.1865 104.795 43.0547 104.795 42.8545C104.795 42.5664 104.995 42.2832 105.405 42.0488C105.703 41.8779 106.089 41.7852 106.592 41.7852C107.827 41.7852 108.511 42.3906 108.511 43.4893V46.585C108.511 46.8779 108.359 47.0488 108.101 47.0488C107.852 47.0488 107.705 46.8828 107.695 46.6045V46.3164H107.661ZM116.938 46.5801C116.938 46.873 116.782 47.0488 116.519 47.0488C116.255 47.0488 116.099 46.873 116.099 46.5801V43.6064C116.099 42.918 115.693 42.5225 115.015 42.5225C114.351 42.5225 113.862 43.0205 113.862 43.7188V46.5801C113.862 46.873 113.706 47.0488 113.442 47.0488C113.179 47.0488 113.027 46.873 113.027 46.5801V43.6406C113.027 42.9521 112.588 42.5225 111.919 42.5225C111.26 42.5225 110.786 43.0059 110.786 43.709V46.5801C110.786 46.873 110.63 47.0488 110.366 47.0488C110.103 47.0488 109.946 46.873 109.946 46.5801V42.2881C109.946 41.9951 110.107 41.8193 110.366 41.8193C110.625 41.8193 110.781 41.9951 110.781 42.2832V42.6836H110.825C111.016 42.1123 111.523 41.7852 112.217 41.7852C112.93 41.7852 113.467 42.1514 113.647 42.752H113.682C113.936 42.1367 114.507 41.7852 115.244 41.7852C116.318 41.7852 116.938 42.3711 116.938 43.3867V46.5801ZM118.066 48.4551C118.066 48.2646 118.223 48.1328 118.457 48.1328C118.525 48.1328 118.618 48.1426 118.726 48.1426C119.062 48.1426 119.37 47.8398 119.502 47.376C119.502 47.3711 119.585 47.083 119.585 47.0781L117.935 42.5566C117.891 42.4395 117.871 42.3369 117.871 42.2588C117.871 42.0293 118.052 41.8535 118.301 41.8535C118.506 41.8535 118.652 41.9902 118.74 42.2783L120.005 46.165H120.044L121.309 42.2783C121.396 41.9902 121.543 41.8535 121.743 41.8535C121.982 41.8535 122.158 42.0244 122.158 42.2539C122.158 42.332 122.139 42.4297 122.09 42.5566L120.361 47.3809C119.985 48.4355 119.478 48.8506 118.682 48.8506C118.452 48.8506 118.262 48.792 118.159 48.6943C118.096 48.6309 118.066 48.5527 118.066 48.4551Z" fill="black"/>
<defs>
<clipPath id="clip0_1602_20">
<rect width="30" height="51" fill="white"/>
</clipPath>
</defs>
</svg>
