<svg width="33" height="33" viewBox="0 0 33 33" fill="none" xmlns="http://www.w3.org/2000/svg">
<path d="M23.3994 0.922768C23.6317 1.03164 23.8234 1.21159 23.9467 1.43659C24.07 1.6616 24.1185 1.92 24.0853 2.17441C24.0727 9.70784 24.07 17.2413 24.077 24.7747V25.1848H22.2196V24.7959C22.2196 17.2413 22.2169 9.68702 22.2114 2.13316C22.1804 1.88329 22.2312 1.6301 22.3561 1.41149C22.481 1.19287 22.6734 1.02059 22.9044 0.92041L23.3994 0.922768Z" fill="white"/>
<path d="M0.731964 14.4869C0.814107 14.2475 0.976008 14.0436 1.19056 13.9092C1.40511 13.7749 1.65928 13.7184 1.91054 13.7491C7.92518 13.7586 13.9406 13.7613 19.9568 13.7574C20.1316 13.7525 20.3062 13.7699 20.4766 13.8092C20.6824 13.8666 20.8614 13.9945 20.9825 14.1705C21.1036 14.3465 21.1589 14.5594 21.1389 14.7721C21.1196 14.9901 21.0232 15.1941 20.867 15.3475C20.7108 15.5008 20.5052 15.5935 20.2868 15.6089C20.169 15.6172 20.0605 15.6089 19.9462 15.6089C13.941 15.6089 7.93579 15.6117 1.93057 15.6172C1.68062 15.6503 1.42673 15.5996 1.20874 15.4729C0.990746 15.3462 0.820982 15.1507 0.726074 14.9171L0.731964 14.4869Z" fill="white"/>
<path d="M18.7372 25.2013C17.8509 25.2013 16.9859 25.1872 16.122 25.2084C15.7823 25.2102 15.4447 25.2623 15.1202 25.3628C14.7141 25.4903 14.3446 25.7135 14.0427 26.0136C13.7408 26.3136 13.5154 26.6817 13.3853 27.087C12.9551 28.3328 12.5474 29.588 12.1325 30.8384C11.9467 31.4228 11.9496 32.0508 12.1407 32.6334H4.96443C4.82518 32.657 4.68241 32.6494 4.54646 32.6112C4.4105 32.5729 4.28475 32.5049 4.17828 32.4121C4.07182 32.3192 3.9873 32.2039 3.93085 32.0745C3.8744 31.945 3.84742 31.8046 3.85185 31.6634C3.62793 29.7164 3.4205 27.7682 3.206 25.8201C2.97028 23.657 2.73142 21.4939 2.48942 19.3309C2.42264 18.7196 2.35703 18.1079 2.2926 17.4958L2.37157 17.4675C2.42172 17.5521 2.46621 17.6399 2.50475 17.7304C2.8888 18.9082 3.54436 19.9793 4.41854 20.8571C5.29272 21.735 6.36102 22.3951 7.53725 22.7841C8.26103 23.0273 9.01417 23.1724 9.77653 23.2154C11.1438 23.3726 12.5281 23.2832 13.8638 22.9514C15.1343 22.6046 16.3002 21.951 17.2589 21.048C18.2176 20.145 18.9397 19.0203 19.3619 17.7728L19.4715 17.4746L19.5893 17.4982L18.7372 25.2013Z" fill="white"/>
<path d="M23.1566 32.6333H14.9549C14.7791 32.6638 14.5983 32.6441 14.4331 32.5767C14.268 32.5092 14.1251 32.3966 14.0209 32.2518C13.9166 32.107 13.8552 31.9358 13.8437 31.7578C13.8321 31.5798 13.8709 31.4021 13.9555 31.245C14.3366 30.1026 14.718 28.9601 15.0999 27.8177C15.1469 27.5801 15.2829 27.3693 15.48 27.2285C15.6771 27.0877 15.9205 27.0274 16.1606 27.0599H30.1514C30.3856 27.0319 30.6218 27.0918 30.8145 27.2278C31.0071 27.3638 31.1425 27.5665 31.1945 27.7965C31.5873 28.968 31.9778 30.1403 32.366 31.3133C32.4334 31.4654 32.4594 31.6325 32.4414 31.7979C32.4234 31.9632 32.3619 32.1208 32.2633 32.2547C32.1647 32.3887 32.0324 32.4941 31.8799 32.5604C31.7274 32.6267 31.56 32.6514 31.3948 32.6322C28.6472 32.6345 25.9011 32.6349 23.1566 32.6333Z" fill="white"/>
<path d="M17.4712 17.4958C17.1237 18.3684 16.5782 19.1483 15.8778 19.774C14.8147 20.7594 13.4314 21.3273 11.9826 21.3734C10.7893 21.4936 9.58426 21.4107 8.41864 21.1282C7.5737 20.8821 6.79093 20.4586 6.12251 19.8861C5.4541 19.3136 4.9154 18.6052 4.54232 17.8082C4.49753 17.7174 4.46336 17.622 4.4115 17.4958H17.4712Z" fill="white"/>
</svg>
