<svg xmlns="http://www.w3.org/2000/svg" viewBox="0 0 87.54 72.99"><defs><style>.cls-1{fill:#fff;}</style></defs><g id="Layer_2" data-name="Layer 2"><g id="Layer_1-2" data-name="Layer 1"><path class="cls-1" d="M87.54,71.56A2.23,2.23,0,0,1,85.18,73q-41.4,0-82.82,0C.62,73,0,72.34,0,70.59c0-1.57,0-3.14,0-4.7a7.27,7.27,0,0,1,6.51-7.42l.79-.12v-1c0-2.06.53-2.6,2.56-2.6H77.65c.23,0,.45,0,.68,0a1.8,1.8,0,0,1,1.89,1.88c0,.56,0,1.12,0,1.73a7.48,7.48,0,0,1,7.31,6.51Zm-3.63-2.27c0-.35,0-.62,0-.9,0-1,0-2-.06-3a3.48,3.48,0,0,0-3.31-3.32c-.65-.07-1.31,0-2-.06a1.85,1.85,0,0,1-2-2c0-.53,0-1.06,0-1.57H11c0,.6,0,1.14,0,1.68A1.82,1.82,0,0,1,9,62c-.54,0-1.08,0-1.62,0-1.91.09-3.44,1.2-3.63,2.88a39.69,39.69,0,0,0,0,4.37Z"/><path class="cls-1" d="M40.14,11H37.79c-2.78,0-3.12-.36-3.13-3.16a7.53,7.53,0,0,1,1.83-5.28A6.67,6.67,0,0,1,41.31.12c2.21-.08,4.44-.35,6.62.34a7.22,7.22,0,0,1,4.89,6.2c0,.73.07,1.48,0,2.22A1.89,1.89,0,0,1,50.76,11c-.8,0-1.6,0-2.39,0h-1c0,1.21,0,2.34,0,3.47,0,.18.44.46.7.5a31.42,31.42,0,0,1,9.56,3A33.28,33.28,0,0,1,71.36,30.63,35.82,35.82,0,0,1,76.2,44.2c.16,1,.21,2.09.32,3.25h1.53c1.33,0,2.15.69,2.16,1.78s-.78,1.82-2.18,1.85H10.09c-.37,0-.75,0-1.11,0A1.75,1.75,0,0,1,7.34,49.3a1.72,1.72,0,0,1,1.59-1.8,17.18,17.18,0,0,1,2,0c.23-1.71.37-3.33.69-4.91,2.43-11.8,8.92-20.48,20-25.42A48.16,48.16,0,0,1,39.35,15c.57-.14.83-.27.8-.91C40.1,13.11,40.14,12.11,40.14,11ZM14.72,47.4H72.83a32.41,32.41,0,0,0-1.51-8.16,30.48,30.48,0,0,0-9.74-14.46A27.4,27.4,0,0,0,42,18.37a27,27,0,0,0-12.14,3.68A30.09,30.09,0,0,0,17.55,35.82,31.49,31.49,0,0,0,14.72,47.4ZM38.35,7.25H49.2a3.56,3.56,0,0,0-3.42-3.54c-1.33-.06-2.68-.06-4,0A3.56,3.56,0,0,0,38.35,7.25Z"/><path class="cls-1" d="M43,22.36a2.13,2.13,0,0,1,2.39,1.09A1.75,1.75,0,0,1,44,25.93a52,52,0,0,0-5.3.75,21.58,21.58,0,0,0-13.18,9.75c-.2.31-.37.64-.58.94a1.8,1.8,0,0,1-2.5.7,1.74,1.74,0,0,1-.61-2.52,31.49,31.49,0,0,1,2.75-4A25,25,0,0,1,43,22.36Z"/></g></g></svg>