<svg xmlns="http://www.w3.org/2000/svg" viewBox="0 0 83.99 111.44"><defs><style>.cls-1{fill:#fff;}</style></defs><g id="Layer_2" data-name="Layer 2"><g id="Layer_1-2" data-name="Layer 1"><path class="cls-1" d="M4.36,111.44c-.22-.1-.44-.22-.66-.31A5.36,5.36,0,0,1,.05,106c-.06-5,0-10,0-15,0-1.27.64-2,1.68-2s1.57.68,1.57,1.93c0,4.78,0,9.57,0,14.36,0,2.14.75,2.9,2.87,2.9H70.26c2.15,0,2.88-.73,2.88-2.87V13.69c0-2.15-.7-2.84-2.89-2.84H6.16c-2.15,0-2.86.72-2.86,2.89V81.86c0,.4,0,.8,0,1.19a1.5,1.5,0,0,1-1.54,1.52A1.55,1.55,0,0,1,.07,83.18a6.58,6.58,0,0,1,0-1.09c0-22.78,0-45.56,0-68.33,0-3.63,2.48-6.49,6.22-6.18.42,0,.85,0,1.4,0,0-.84,0-1.55,0-2.27A5.43,5.43,0,0,1,12.91,0c1.23,0,2.47,0,3.7,0H77.77C81.82,0,84,2.18,84,6.28c0,3.8,0,7.61,0,11.42,0,.26,0,.51,0,.76a1.69,1.69,0,0,1-1.67,1.78,1.63,1.63,0,0,1-1.58-1.82c0-2.29,0-4.57,0-6.86V6.23c0-2.22-.73-3-2.92-3H14.14c-2.72,0-3.3.6-3.26,3.35,0,.29,0,.57.06,1h1.43c19.26,0,38.52,0,57.78,0a6,6,0,0,1,6.3,6.34q-.12,42.61,0,85.21v1.48a20,20,0,0,0,2.46,0,2.05,2.05,0,0,0,1.82-1.89,8,8,0,0,0,0-1.3V27.5c0-.37,0-.73,0-1.09a1.65,1.65,0,0,1,1.62-1.8A1.68,1.68,0,0,1,84,26.41c0,.21,0,.43,0,.65q0,35.42,0,70.84c0,3.13-1.81,5.51-4.54,5.89a23.51,23.51,0,0,1-3,0c0,.74,0,1.3,0,1.87a5.44,5.44,0,0,1-4,5.56,2.16,2.16,0,0,0-.36.2Z"/><path class="cls-1" d="M23.84,15.85A15.72,15.72,0,1,1,8.07,31.48,15.76,15.76,0,0,1,23.84,15.85ZM22.19,19.3c-6.14.42-11.15,6.42-10.84,12.88A12.46,12.46,0,0,0,24.29,44c7.46-.24,11.65-6.65,11.75-10.81H34.86c-3.55,0-7.1,0-10.65,0-1.48,0-2-.55-2-2,0-2.72,0-5.44,0-8.16Zm3.35,0V29.82H36.1A12.26,12.26,0,0,0,25.54,19.29Z"/><path class="cls-1" d="M53.12,50.68H65.31c2.1,0,3.06,1,3.06,3.06q0,6.85,0,13.71c0,2.08-1,3.07-3.06,3.07q-12.24,0-24.48,0c-2,0-3.08-1-3.09-3.08q0-6.86,0-13.71c0-2.08,1-3,3.09-3ZM65.07,54h-24V67.19h24Z"/><path class="cls-1" d="M8.07,86.83q0-5.26,0-10.55c0-2.11,1-3.12,3.13-3.13,1.2,0,2.4,0,3.59,0q3,0,3,3.15c0,5.91,0,11.82,0,17.73,0,1.23,0,2.47,0,3.7a2.66,2.66,0,0,1-2.87,2.84c-1.35,0-2.69,0-4,0a2.65,2.65,0,0,1-2.84-2.86C8.05,94.08,8.07,90.46,8.07,86.83Zm6.39,10.44V76.49H11.41V97.27Z"/><path class="cls-1" d="M29.83,89.76c0,2.61,0,5.22,0,7.83a2.65,2.65,0,0,1-2.93,3c-1.3,0-2.61,0-3.91,0a2.56,2.56,0,0,1-2.84-2.63q-.07-8.14,0-16.31A2.53,2.53,0,0,1,23,79Q25,79,27.1,79a2.58,2.58,0,0,1,2.73,2.73C29.85,84.4,29.83,87.08,29.83,89.76Zm-6.37-7.47V97.23h3V82.29Z"/><path class="cls-1" d="M32.19,93.4c0-1.45,0-2.9,0-4.35a2.63,2.63,0,0,1,2.75-2.84c1.41,0,2.83,0,4.24,0a2.53,2.53,0,0,1,2.68,2.56q.09,4.62,0,9.24a2.52,2.52,0,0,1-2.67,2.56c-1.38,0-2.76,0-4.14,0a2.63,2.63,0,0,1-2.86-2.83C32.17,96.3,32.19,94.85,32.19,93.4Zm3.36-3.89v7.74h3V89.51Z"/><path class="cls-1" d="M54.63,33.74h-10c-1.29,0-2-.51-2-1.49s.64-1.54,1.92-1.54H64.81c1.24,0,2,.59,1.94,1.54s-.73,1.49-2,1.49Z"/><path class="cls-1" d="M54.74,26.61H44.3c-.82,0-1.53-.33-1.58-1.15a2.59,2.59,0,0,1,.73-1.63c.25-.27.88-.25,1.34-.25,2.07,0,4.13,0,6.2,0H64.26c.29,0,.58,0,.87,0a1.59,1.59,0,0,1,1.63,1.55,1.55,1.55,0,0,1-1.69,1.48c-2.17,0-4.35,0-6.52,0H54.74Z"/><path class="cls-1" d="M21.66,58.56c-3.37,0-6.74,0-10.11,0-1,0-1.65-.31-1.79-1.34s.57-1.7,1.85-1.7c4.46,0,8.92,0,13.38,0,2.28,0,4.57,0,6.85,0,1.29,0,2,.52,2,1.5s-.65,1.53-1.93,1.53Z"/><path class="cls-1" d="M54.64,40.85H45c-.43,0-1,.08-1.27-.15-.44-.37-1-1-1-1.46s.64-1,1.11-1.35c.23-.18.7-.08,1.06-.08H64.47a8,8,0,0,1,1,0,1.48,1.48,0,0,1,.16,2.9,5.22,5.22,0,0,1-1.19.1Z"/><path class="cls-1" d="M21.83,62.64H32.05c1.37,0,2.14,1,1.64,2.11-.37.83-1.12.92-1.92.92-4,0-8,0-11.95,0H11.55c-.87,0-1.58-.26-1.78-1.23s.48-1.78,1.73-1.79Z"/><path class="cls-1" d="M55.41,87.94c-3.16,0-6.31,0-9.46,0-1.14,0-1.77-.52-1.81-1.43s.62-1.6,1.86-1.6H64.48c1.53,0,2.29.52,2.27,1.55s-.76,1.5-2.32,1.5Z"/><path class="cls-1" d="M55.51,77.45h9.24c1.27,0,2,.54,2,1.48S66,80.49,64.7,80.5H45.79c-1.08-.08-1.69-.68-1.65-1.61s.61-1.41,1.7-1.42C49.06,77.44,52.29,77.45,55.51,77.45Z"/><path class="cls-1" d="M55.36,95.38H46c-1.24,0-1.86-.5-1.89-1.46s.66-1.56,1.92-1.56h18.8c1.19,0,1.88.56,1.9,1.48s-.69,1.54-1.93,1.54Z"/></g></g></svg>