<svg xmlns="http://www.w3.org/2000/svg" viewBox="0 0 134.37 81.58"><defs><style>.cls-1{fill:#fff;}</style></defs><g id="Layer_2" data-name="Layer 2"><g id="Layer_1-2" data-name="Layer 1"><path class="cls-1" d="M0,55.48c.49-2.12.81-4.29,1.49-6.35A28,28,0,0,1,14.05,33.56l1.1-.7a19,19,0,0,1-5.42-17.4,18.31,18.31,0,0,1,6.86-11.3A19.14,19.14,0,0,1,42,32.75l7,5.24c-2.28-8.78-.15-16.38,7.55-21.74,6.39-4.46,13.47-4.75,20.17-.77,8.49,5.05,11,12.83,8.88,22.35l6.89-5.09a19,19,0,0,1-5.27-17.43A18.26,18.26,0,0,1,94.08,4.07a19.13,19.13,0,0,1,25.24,28.68c1.87,1.41,3.86,2.69,5.59,4.26a27.81,27.81,0,0,1,9.41,20.48c.08,2.27.05,4.54,0,6.82a4.24,4.24,0,1,1-8.47.08c-.15-3.35.07-6.77-.48-10.06a19.7,19.7,0,0,0-19.34-16.16c-8.44.16-14.42,4-18.3,11.41A1.53,1.53,0,0,0,88,51.65a28.36,28.36,0,0,1,7.66,19.79c0,1.84,0,3.68,0,5.51-.06,2.81-1.79,4.64-4.29,4.62s-4.14-1.91-4.24-4.68c-.13-3.48.09-7.06-.61-10.43a19.37,19.37,0,0,0-17.2-15.33,19.87,19.87,0,0,0-22.08,19.1c-.07,2.36,0,4.72-.05,7.08a4.2,4.2,0,0,1-4.12,4.26,4.05,4.05,0,0,1-4.32-4c-.21-5.73-.33-11.46,1.9-16.93a28.33,28.33,0,0,1,5.7-9,1.36,1.36,0,0,0,.33-1.72c-3-7-10.44-11.52-18-11.77A20.08,20.08,0,0,0,8.49,58.59c0,1.79,0,3.59,0,5.38,0,2.47-1.25,4.18-3.27,4.61-2.2.48-4-.55-5-3,0-.07-.12-.12-.18-.18ZM28.51,29.56C34,30,39.11,25,39.09,19.08a10.61,10.61,0,0,0-21.22.05C17.93,25.31,23.18,30,28.51,29.56Zm77.34,0c5.32.43,10.57-4.26,10.63-10.44a10.62,10.62,0,0,0-21.23,0C95.24,25,100.33,30,105.85,29.56ZM67.15,42.48C72.72,42.8,77.75,38,77.77,32A10.6,10.6,0,1,0,56.58,32C56.56,38,61.59,42.78,67.15,42.48Z"/></g></g></svg>