<svg width="158" height="45" viewBox="0 0 158 45" fill="none" xmlns="http://www.w3.org/2000/svg">
<path d="M18.1644 37.2812C16.4049 51.3906 23.7362 1 25.2024 1C29.5301 11.5136 32.137 24 32.137 26C32.137 28 28.4861 32.809 22.0198 37.2812M12.8858 35.9375C7.27539 34.7465 5.11982 33.8463 1.53671 34.6016C0.816764 34.7534 0.815031 34.9683 1.39631 34.5173C5.36475 31.4377 16.1203 16.7109 22.0198 2.5M34 44C34 44 -1.19026 39.2969 0.569254 41.3125C2.32877 43.3281 2.32877 44 2.32877 44" stroke="url(#paint0_linear_8_40)"/>
<path d="M53.4141 15.6279C53.2529 16.3154 53.1724 16.9546 53.1724 17.5454C53.1724 18.6196 53.4248 19.5327 53.9297 20.2847C54.7139 21.4771 55.8579 22.0732 57.3618 22.0732C58.8228 22.0732 60.1655 21.5146 61.3901 20.3975C62.5933 19.3018 63.3613 18.0342 63.6943 16.5947L65.8052 7.47461L69.2051 6.02441H69.3662L63.791 30.1943L60.3911 31.6445H60.23L62.3408 22.46C60.6328 24.0283 58.7637 24.8125 56.7334 24.8125C53.9619 24.8125 51.9692 23.7168 50.7554 21.5254C50.186 20.4941 49.9014 19.3286 49.9014 18.0288C49.9014 17.2769 49.998 16.4766 50.1914 15.6279C50.5029 14.2529 51.1421 13.0176 52.1089 11.9219C53.0327 10.8691 54.2896 10.0313 55.8794 9.4082H51.3032L51.3516 9.24707L53.1562 6.66895H62.0669L62.0186 6.83008L60.2139 9.4082C58.4414 9.83789 56.8677 10.7026 55.4927 12.0024C54.4399 13.0015 53.7471 14.21 53.4141 15.6279ZM83.981 24.9253C83.5513 25.9565 83.041 26.8481 82.4502 27.6001C80.5166 30.0815 78.3467 31.3223 75.9404 31.3223C73.5986 31.3223 72.0142 30.0815 71.187 27.6001C70.9722 26.9556 70.8647 26.2144 70.8647 25.3765C70.8647 24.3882 71.0044 23.3086 71.2837 22.1377C71.7778 19.9463 72.5835 18.1255 73.7007 16.6753C75.6128 14.1938 77.7773 12.9531 80.1943 12.9531C82.0312 12.9531 83.3848 13.5278 84.2549 14.6772C84.9316 15.5688 85.27 16.5249 85.27 17.5454C85.27 17.9321 85.2217 18.3242 85.125 18.7217C84.7275 20.3652 83.8359 21.7993 82.4502 23.0239C81.0752 24.2378 79.3779 24.8447 77.3584 24.8447H76.1177L76.166 24.6836L77.9546 22.1055C79.1147 22.1055 80.0171 21.7939 80.6616 21.1709C81.2954 20.5586 81.7412 19.7314 81.999 18.6895C82.0635 18.4316 82.0957 18.1846 82.0957 17.9482C82.0957 17.4219 81.9507 16.9707 81.6606 16.5947C81.231 15.9932 80.5273 15.6924 79.5498 15.6924C78.2393 15.6924 77.1113 16.4014 76.166 17.8193C75.4785 18.8506 74.9253 20.29 74.5063 22.1377C74.2056 23.4697 74.0552 24.5493 74.0552 25.3765C74.0552 25.7954 74.0928 26.1553 74.168 26.4561C74.5762 27.874 75.3818 28.583 76.585 28.583C77.8096 28.583 78.9375 27.874 79.9688 26.4561L83.8198 24.9253H83.981ZM92.1021 31.6445C89.8569 31.6445 88.7344 30.8389 88.7344 29.2275C88.7344 28.916 88.7773 28.5723 88.8633 28.1963L93.6489 7.47461L97.0488 6.02441H97.21L92.0859 28.1963C91.9785 28.6689 92.1826 28.9053 92.6982 28.9053H93.939L93.9067 29.0664L92.1021 31.6445ZM97.7417 31.6445L103.317 7.47461L106.717 6.02441H106.878L103.784 19.4468L111.535 12.6309H111.696L114.226 13.9683L108.296 18.8828C109.789 19.0869 110.928 19.5864 111.712 20.3813C112.518 21.1978 112.92 22.127 112.92 23.1689C112.92 23.5127 112.877 23.8672 112.792 24.2324C112.405 25.876 111.046 27.2188 108.715 28.2607H112.695L112.663 28.4219L110.858 31H103.317L103.349 30.8389L105.154 28.2607C106.11 27.9814 106.996 27.5356 107.812 26.9233C108.736 26.2251 109.322 25.3281 109.569 24.2324C109.623 23.9961 109.649 23.7759 109.649 23.5718C109.649 23.0024 109.445 22.5137 109.037 22.1055C108.607 21.6758 107.855 21.4609 106.781 21.4609C105.804 21.4609 104.917 21.7402 104.123 22.2988C103.317 22.8682 102.774 23.7705 102.495 25.0059L101.303 30.1943L97.9028 31.6445H97.7417ZM130.838 24.9253C130.409 25.9565 129.898 26.8481 129.308 27.6001C127.374 30.0815 125.204 31.3223 122.798 31.3223C120.456 31.3223 118.872 30.0815 118.044 27.6001C117.83 26.9556 117.722 26.2144 117.722 25.3765C117.722 24.3882 117.862 23.3086 118.141 22.1377C118.635 19.9463 119.441 18.1255 120.558 16.6753C122.47 14.1938 124.635 12.9531 127.052 12.9531C128.889 12.9531 130.242 13.5278 131.112 14.6772C131.789 15.5688 132.127 16.5249 132.127 17.5454C132.127 17.9321 132.079 18.3242 131.982 18.7217C131.585 20.3652 130.693 21.7993 129.308 23.0239C127.933 24.2378 126.235 24.8447 124.216 24.8447H122.975L123.023 24.6836L124.812 22.1055C125.972 22.1055 126.875 21.7939 127.519 21.1709C128.153 20.5586 128.599 19.7314 128.856 18.6895C128.921 18.4316 128.953 18.1846 128.953 17.9482C128.953 17.4219 128.808 16.9707 128.518 16.5947C128.088 15.9932 127.385 15.6924 126.407 15.6924C125.097 15.6924 123.969 16.4014 123.023 17.8193C122.336 18.8506 121.783 20.29 121.364 22.1377C121.063 23.4697 120.913 24.5493 120.913 25.3765C120.913 25.7954 120.95 26.1553 121.025 26.4561C121.434 27.874 122.239 28.583 123.442 28.583C124.667 28.583 125.795 27.874 126.826 26.4561L130.677 24.9253H130.838ZM145.308 28.2607C145.308 28.2607 146.635 28.2607 149.288 28.2607L149.256 28.4219L147.451 31H139.91L139.942 30.8389L141.747 28.2607C143.262 27.3477 144.352 26.4668 145.018 25.6182C145.834 24.5654 146.388 23.4053 146.678 22.1377C146.979 20.8164 147.129 19.7422 147.129 18.915C147.129 18.4746 147.086 18.1094 147 17.8193C146.635 16.4014 145.829 15.6924 144.583 15.6924C143.369 15.6924 142.241 16.4014 141.199 17.8193C140.555 18.7002 140.001 20.1396 139.54 22.1377L137.687 30.1943L134.287 31.6445H134.125L136.317 22.1377C136.833 19.8926 137.638 18.0718 138.734 16.6753C140.678 14.1938 142.843 12.9531 145.228 12.9531C147.677 12.9531 149.261 14.1938 149.981 16.6753C150.196 17.4165 150.303 18.2168 150.303 19.0762C150.303 20.0322 150.174 21.0527 149.917 22.1377C149.315 24.7373 147.779 26.7783 145.308 28.2607Z" fill="#363A88"/>
<path d="M102.567 42.629L101.852 42.387L102.6 40.286L100.455 34.5H101.357L103.018 39.098L104.657 34.5H105.537L102.567 42.629ZM108.272 40.154C107.641 40.154 107.124 39.9157 106.721 39.439C106.318 38.9623 106.116 38.2767 106.116 37.382C106.116 36.48 106.369 35.7503 106.875 35.193C107.388 34.6283 108.023 34.346 108.778 34.346C109.541 34.346 110.226 34.5587 110.835 34.984V38.9L110.945 40L110.219 40.055L110.032 39.065C109.621 39.791 109.035 40.154 108.272 40.154ZM106.952 37.36C106.952 38.02 107.091 38.526 107.37 38.878C107.649 39.23 108.004 39.406 108.437 39.406C108.877 39.406 109.247 39.1897 109.548 38.757C109.849 38.317 109.999 37.6973 109.999 36.898V35.369C109.632 35.1857 109.24 35.094 108.822 35.094C108.279 35.094 107.832 35.3067 107.48 35.732C107.128 36.15 106.952 36.6927 106.952 37.36ZM116.593 39.472C116.065 39.9267 115.449 40.154 114.745 40.154C114.048 40.154 113.469 39.9193 113.007 39.45C112.552 38.9807 112.325 38.2987 112.325 37.404C112.325 36.502 112.552 35.7687 113.007 35.204C113.469 34.632 114.107 34.346 114.921 34.346C115.427 34.346 115.896 34.478 116.329 34.742L116.12 35.413C115.731 35.2003 115.339 35.094 114.943 35.094C114.4 35.094 113.968 35.2993 113.645 35.71C113.322 36.1207 113.161 36.6707 113.161 37.36C113.161 38.042 113.308 38.5553 113.601 38.9C113.902 39.2373 114.283 39.406 114.745 39.406C115.332 39.406 115.838 39.23 116.263 38.878L116.593 39.472ZM117.058 35.215V34.5H117.894L118.158 32.85H118.73V34.5H120.017V35.215H118.73V38.801C118.73 39.2043 118.895 39.406 119.225 39.406C119.475 39.406 119.746 39.2997 120.039 39.087L120.347 39.648C119.922 39.9853 119.508 40.154 119.104 40.154C118.701 40.154 118.397 40.0587 118.191 39.868C117.993 39.67 117.894 39.3143 117.894 38.801V35.215H117.058ZM125.87 40H125.034V36.656C125.034 35.6147 124.664 35.094 123.923 35.094C123.498 35.094 123.109 35.314 122.757 35.754C122.412 36.194 122.229 36.799 122.207 37.569V40H121.371V32.3H122.207V35.567C122.427 35.171 122.702 34.8703 123.032 34.665C123.369 34.4523 123.714 34.346 124.066 34.346C125.269 34.346 125.87 35.116 125.87 36.656V40ZM134.21 39.472C133.682 39.9267 133.066 40.154 132.362 40.154C131.666 40.154 131.086 39.9193 130.624 39.45C130.17 38.9807 129.942 38.2987 129.942 37.404C129.942 36.502 130.17 35.7687 130.624 35.204C131.086 34.632 131.724 34.346 132.538 34.346C133.044 34.346 133.514 34.478 133.946 34.742L133.737 35.413C133.349 35.2003 132.956 35.094 132.56 35.094C132.018 35.094 131.585 35.2993 131.262 35.71C130.94 36.1207 130.778 36.6707 130.778 37.36C130.778 38.042 130.925 38.5553 131.218 38.9C131.519 39.2373 131.9 39.406 132.362 39.406C132.949 39.406 133.455 39.23 133.88 38.878L134.21 39.472ZM135.181 32.3H136.017V38.79C136.017 39.1933 136.182 39.395 136.512 39.395C136.725 39.395 136.934 39.3217 137.139 39.175L137.469 39.769C137.066 40.0257 136.685 40.154 136.325 40.154C135.966 40.154 135.684 40.055 135.478 39.857C135.28 39.659 135.181 39.3033 135.181 38.79V32.3ZM138.071 34.5H138.907V37.844C138.907 38.8853 139.277 39.406 140.018 39.406C140.443 39.406 140.828 39.1897 141.173 38.757C141.525 38.317 141.712 37.712 141.734 36.942V34.5H142.57V38.9L142.68 40L141.954 40.055L141.734 38.922C141.514 39.318 141.235 39.6223 140.898 39.835C140.561 40.0477 140.22 40.154 139.875 40.154C138.672 40.154 138.071 39.384 138.071 37.844V34.5ZM145.17 32.3V35.402C145.573 34.698 146.167 34.346 146.952 34.346C147.568 34.346 148.07 34.5843 148.459 35.061C148.855 35.5377 149.053 36.227 149.053 37.129C149.053 38.0237 148.796 38.7533 148.283 39.318C147.777 39.8753 147.157 40.154 146.424 40.154C145.69 40.154 145.159 39.9487 144.829 39.538C144.499 39.12 144.334 38.5553 144.334 37.844V32.3H145.17ZM148.217 37.14C148.217 36.4727 148.092 35.9667 147.843 35.622C147.593 35.27 147.241 35.094 146.787 35.094C146.339 35.094 145.962 35.2957 145.654 35.699C145.346 36.1023 145.184 36.722 145.17 37.558V37.844C145.17 38.306 145.265 38.6837 145.456 38.977C145.654 39.263 145.951 39.406 146.347 39.406C146.889 39.406 147.337 39.197 147.689 38.779C148.041 38.3537 148.217 37.8073 148.217 37.14Z" fill="#A5A5A5"/>
<defs>
<linearGradient id="paint0_linear_8_40" x1="17" y1="1" x2="17" y2="44" gradientUnits="userSpaceOnUse">
<stop offset="0.119792" stop-color="#348827"/>
<stop offset="0.40625" stop-color="#A70A00" stop-opacity="0.69"/>
<stop offset="0.8125" stop-color="#C4C800" stop-opacity="0.63"/>
<stop offset="1" stop-color="#1B4DCE"/>
</linearGradient>
</defs>
</svg>
