<svg width="172" height="44" viewBox="0 0 172 44" fill="none" xmlns="http://www.w3.org/2000/svg">
<path d="M48.7538 39.576C47.5591 39.576 46.4498 39.4267 45.4258 39.128C44.4017 38.872 43.8897 38.424 43.8897 37.784C43.8897 37.3573 44.1244 36.9733 44.5938 36.632C45.1058 36.2907 45.7031 36.0347 46.3858 35.864C47.1111 35.6507 47.7511 35.544 48.3058 35.544C50.1404 35.544 51.9111 35.8213 53.6178 36.376C55.3244 36.888 57.0738 37.4213 58.8658 37.976C60.7004 38.488 62.6631 38.744 64.7538 38.744C67.3138 38.744 69.7671 38.2107 72.1138 37.144C74.4604 36.0773 76.5511 34.6267 78.3857 32.792C80.2204 30.9573 81.6498 28.888 82.6738 26.584C83.7404 24.2373 84.2738 21.8053 84.2738 19.288C84.2738 16.6 83.8044 14.2533 82.8658 12.248C81.9698 10.2427 80.5191 8.68533 78.5138 7.576C76.5511 6.46667 73.9911 5.912 70.8338 5.912C68.4444 5.912 66.1191 6.40267 63.8578 7.384C61.5964 8.32266 59.5698 9.56 57.7778 11.096C55.9858 12.5893 54.5564 14.2107 53.4898 15.96C52.4231 17.7093 51.8898 19.352 51.8898 20.888C51.8898 21.6987 52.2098 22.5307 52.8498 23.384C53.4898 24.2373 54.5991 24.664 56.1778 24.664C57.6711 24.664 59.2924 24.28 61.0417 23.512C62.7911 22.7013 64.4551 21.6347 66.0338 20.312C67.6551 18.9467 69.0418 17.432 70.1938 15.768C71.3458 14.0613 72.0498 12.312 72.3058 10.52C72.3911 9.96533 72.5191 9.70933 72.6898 9.752C72.8604 9.79467 72.9458 10.0507 72.9458 10.52C72.9458 12.3547 72.4764 14.168 71.5378 15.96C70.5991 17.7093 69.3618 19.288 67.8258 20.696C66.2898 22.104 64.5831 23.2347 62.7058 24.088C60.8711 24.9413 59.0151 25.368 57.1378 25.368C55.4738 25.368 54.1511 25.0907 53.1698 24.536C52.1884 23.9813 51.4844 23.2987 51.0578 22.488C50.6311 21.6347 50.4178 20.8027 50.4178 19.992C50.4178 18.3707 50.9084 16.7067 51.8898 15C52.9138 13.2507 54.3218 11.6507 56.1138 10.2C57.9484 8.74933 60.0818 7.576 62.5138 6.68C64.9884 5.784 67.6551 5.336 70.5138 5.336C73.1591 5.336 75.4418 5.69867 77.3618 6.424C79.2818 7.10667 80.8604 8.06667 82.0978 9.304C83.3351 10.4987 84.2524 11.9067 84.8498 13.528C85.4898 15.1067 85.8098 16.792 85.8098 18.584C85.8098 21.5707 85.2338 24.344 84.0818 26.904C82.9724 29.4213 81.4364 31.6187 79.4738 33.496C77.5111 35.3733 75.2711 36.8453 72.7538 37.912C70.2364 38.936 67.6124 39.448 64.8818 39.448C62.8764 39.448 60.9991 39.2133 59.2498 38.744C57.5004 38.2747 55.7938 37.8267 54.1298 37.4C52.5084 36.9307 50.7804 36.696 48.9458 36.696C48.5618 36.696 48.0071 36.7173 47.2818 36.76C46.5991 36.8027 45.9804 36.9093 45.4258 37.08C44.8711 37.208 44.5938 37.4427 44.5938 37.784C44.5938 38.0827 44.8498 38.3173 45.3618 38.488C45.8738 38.6587 46.4711 38.7653 47.1538 38.808C47.8364 38.8507 48.3911 38.872 48.8177 38.872C50.7804 38.872 52.6578 38.5093 54.4498 37.784C56.2418 37.016 57.9698 35.9707 59.6338 34.648C61.2978 33.3253 62.8764 31.832 64.3698 30.168C65.9058 28.4613 67.3778 26.6693 68.7858 24.792C70.5778 22.36 72.4978 20.056 74.5458 17.88C76.5938 15.704 78.6844 13.784 80.8178 12.12C82.9511 10.4133 85.0418 9.09067 87.0898 8.152C89.1378 7.17067 91.0578 6.68 92.8498 6.68C93.4044 6.68 93.6178 6.78667 93.4898 7C93.3618 7.17067 93.1271 7.256 92.7858 7.256C91.3351 7.256 89.7778 7.74667 88.1138 8.728C86.4498 9.70933 84.7431 11.032 82.9938 12.696C81.2871 14.36 79.6444 16.1947 78.0658 18.2C76.4871 20.2053 75.0578 22.232 73.7778 24.28C72.7111 25.9867 71.3884 27.736 69.8098 29.528C68.2311 31.32 66.3964 32.984 64.3058 34.52C62.2151 36.0133 59.8684 37.2293 57.2658 38.168C54.6631 39.1067 51.8258 39.576 48.7538 39.576ZM87.1262 39.576C86.5289 39.576 85.8676 39.4053 85.1422 39.064C84.3742 38.7653 83.9902 38.2533 83.9902 37.528C83.9902 36.632 84.3956 35.5013 85.2062 34.136C86.0169 32.7707 87.0196 31.3627 88.2142 29.912C89.3663 28.4613 90.4969 27.096 91.6063 25.816C92.7156 24.536 93.5476 23.5333 94.1023 22.808C94.5716 22.8507 95.1263 22.872 95.7663 22.872C96.4489 22.872 97.0463 22.8507 97.5583 22.808C96.9609 23.5333 96.1716 24.4507 95.1903 25.56C94.2516 26.6693 93.2489 27.864 92.1823 29.144C91.1583 30.3813 90.1556 31.5973 89.1743 32.792C88.2356 33.9867 87.4676 35.0533 86.8702 35.992C86.2729 36.9307 85.9742 37.6133 85.9742 38.04C85.9742 38.3387 86.1022 38.552 86.3582 38.68C86.6142 38.808 87.0409 38.872 87.6382 38.872C88.6623 38.872 89.7929 38.488 91.0303 37.72C92.3103 36.9093 93.5476 35.9493 94.7423 34.84C95.9369 33.7307 97.0036 32.6853 97.9423 31.704C98.8809 30.68 99.5423 29.9333 99.9263 29.464L100.438 29.912C100.054 30.3387 99.3929 31.0853 98.4543 32.152C97.5583 33.176 96.4703 34.264 95.1903 35.416C93.9529 36.568 92.6303 37.5493 91.2223 38.36C89.8569 39.1707 88.4916 39.576 87.1262 39.576ZM99.9263 17.944C99.4143 17.944 99.0303 17.7947 98.7743 17.496C98.5183 17.1547 98.3903 16.7707 98.3903 16.344C98.3903 15.8747 98.6463 15.384 99.1583 14.872C99.6703 14.36 100.204 14.104 100.758 14.104C101.356 14.104 101.782 14.2747 102.038 14.616C102.294 14.9147 102.422 15.2133 102.422 15.512C102.422 16.152 102.166 16.728 101.654 17.24C101.142 17.7093 100.566 17.944 99.9263 17.944ZM106.18 22.808C106.606 22.8507 107.182 22.9147 107.908 23C108.676 23.0427 109.401 23 110.084 22.872C109.401 23.5973 108.526 24.5147 107.46 25.624C106.393 26.6907 105.241 27.8213 104.004 29.016C102.809 30.2107 101.678 31.384 100.612 32.536C99.5877 33.688 98.7344 34.712 98.0517 35.608C97.3691 36.504 97.0277 37.1867 97.0277 37.656C97.0277 38.0827 97.1557 38.4027 97.4117 38.616C97.6677 38.8293 98.1157 38.936 98.7557 38.936C99.4384 38.936 100.377 38.68 101.572 38.168C102.809 37.656 104.132 36.9733 105.54 36.12C106.948 35.2667 108.313 34.3067 109.636 33.24C110.958 32.1307 112.068 31 112.964 29.848C113.902 28.6533 114.457 27.48 114.628 26.328C114.756 25.56 114.82 24.7707 114.82 23.96C114.82 23.4907 115.012 23.064 115.396 22.68C115.822 22.2533 116.249 22.04 116.676 22.04C117.614 22.04 118.084 22.5947 118.084 23.704C118.084 24.6853 117.593 25.8587 116.612 27.224C115.673 28.5893 114.414 29.9973 112.836 31.448C111.3 32.856 109.614 34.1787 107.78 35.416C105.988 36.6533 104.217 37.656 102.468 38.424C100.761 39.192 99.2677 39.576 97.9877 39.576C97.2197 39.576 96.6011 39.384 96.1317 39C95.6197 38.616 95.3637 38.0613 95.3637 37.336C95.3637 36.5253 95.7051 35.544 96.3877 34.392C97.0704 33.24 97.9451 32.024 99.0117 30.744C100.036 29.464 101.06 28.248 102.084 27.096C103.15 25.944 104.068 24.984 104.836 24.216C105.604 23.448 106.052 22.9787 106.18 22.808ZM112.452 30.936L112.964 31.32C112.537 31.704 112.174 32.1093 111.876 32.536C111.62 32.92 111.492 33.3467 111.492 33.816C111.492 34.4987 111.897 34.84 112.708 34.84C113.476 34.84 114.286 34.52 115.14 33.88C116.036 33.24 116.91 32.4933 117.764 31.64C118.617 30.7867 119.342 30.0827 119.94 29.528L120.452 29.912C119.854 30.552 119.108 31.32 118.212 32.216C117.358 33.0693 116.441 33.816 115.46 34.456C114.478 35.096 113.561 35.416 112.708 35.416C111.47 35.416 110.852 34.904 110.852 33.88C110.852 33.2827 110.958 32.8133 111.172 32.472C111.385 32.088 111.812 31.576 112.452 30.936ZM133.858 27.8C133.688 28.1413 133.432 28.44 133.09 28.696C132.792 28.952 132.557 29.1227 132.386 29.208C132.258 29.2507 132.301 29.1227 132.514 28.824C133.282 27.8853 133.773 27.0107 133.986 26.2C134.242 25.3893 134.242 24.7493 133.986 24.28C133.773 23.768 133.346 23.512 132.706 23.512C131.853 23.512 130.85 23.8533 129.698 24.536C128.546 25.2187 127.352 26.1147 126.114 27.224C124.92 28.3333 123.789 29.528 122.722 30.808C121.698 32.0453 120.866 33.2613 120.226 34.456C119.586 35.608 119.266 36.6107 119.266 37.464C119.266 38.104 119.394 38.5093 119.65 38.68C119.906 38.8507 120.162 38.936 120.418 38.936C121.4 38.936 122.53 38.488 123.81 37.592C125.133 36.6533 126.477 35.48 127.842 34.072C129.208 32.664 130.509 31.2347 131.746 29.784C132.984 28.2907 134.05 26.9467 134.946 25.752C135.885 24.5573 136.525 23.7467 136.866 23.32C137.336 23.4907 137.89 23.5547 138.53 23.512C139.213 23.4693 139.789 23.4267 140.258 23.384C140.173 23.512 139.725 24.0453 138.914 24.984C138.146 25.9227 137.208 27.0533 136.098 28.376C135.032 29.656 133.944 30.9787 132.834 32.344C131.768 33.7093 130.872 34.904 130.146 35.928C129.421 36.952 129.058 37.6347 129.058 37.976C129.058 38.4027 129.144 38.68 129.314 38.808C129.528 38.8933 129.848 38.936 130.274 38.936C130.786 38.8933 131.533 38.6587 132.514 38.232C133.496 37.7627 134.754 36.8667 136.29 35.544C137.826 34.2213 139.682 32.2587 141.858 29.656C141.858 29.656 141.944 29.72 142.114 29.848C142.328 29.976 142.434 30.04 142.434 30.04C139.874 33.0267 137.506 35.3733 135.33 37.08C133.154 38.744 131.17 39.576 129.378 39.576C128.44 39.576 127.8 39.4267 127.458 39.128C127.16 38.8293 127.01 38.4027 127.01 37.848C127.01 37.4213 127.181 36.9093 127.522 36.312C127.906 35.672 128.333 35.0533 128.802 34.456C129.272 33.8587 129.656 33.3893 129.954 33.048C129.954 33.048 129.912 33.0267 129.826 32.984C129.741 32.9413 129.698 32.92 129.698 32.92C128.717 34.1147 127.672 35.224 126.562 36.248C125.453 37.272 124.344 38.0827 123.234 38.68C122.168 39.2773 121.122 39.576 120.098 39.576C119.032 39.576 118.285 39.32 117.858 38.808C117.432 38.2533 117.218 37.4213 117.218 36.312C117.218 35.2453 117.56 33.9653 118.242 32.472C118.925 30.936 119.906 29.4427 121.186 27.992C122.466 26.4987 124.002 25.2613 125.794 24.28C127.629 23.2987 129.677 22.808 131.938 22.808C133.048 22.808 133.816 23.0213 134.242 23.448C134.669 23.832 134.861 24.3013 134.818 24.856C134.776 25.4107 134.648 25.9653 134.434 26.52C134.221 27.0747 134.029 27.5013 133.858 27.8ZM155.348 39.576C153.086 39.576 151.956 38.9147 151.956 37.592C151.956 36.7387 152.233 35.8213 152.788 34.84C153.385 33.8587 154.11 32.8773 154.964 31.896C155.817 30.872 156.67 29.8693 157.524 28.888C158.42 27.9067 159.145 27.0107 159.7 26.2C160.297 25.3467 160.596 24.6213 160.596 24.024C160.596 23.8107 160.489 23.64 160.276 23.512C160.105 23.3413 159.849 23.256 159.508 23.256C158.996 23.256 158.27 23.512 157.332 24.024C156.436 24.536 155.284 25.4107 153.876 26.648C152.51 27.8427 150.889 29.464 149.012 31.512C147.134 33.5173 144.98 36.0347 142.548 39.064C142.164 38.9787 141.588 38.936 140.82 38.936C140.052 38.936 139.39 39.0213 138.836 39.192C140.073 37.4 141.289 35.6507 142.484 33.944C143.678 32.2373 144.766 30.68 145.748 29.272C146.772 27.864 147.582 26.712 148.18 25.816C148.777 24.8773 149.076 24.3013 149.076 24.088C149.076 23.704 148.884 23.512 148.5 23.512C148.073 23.512 147.54 23.8533 146.9 24.536C146.26 25.176 145.556 26.008 144.788 27.032C144.02 28.0133 143.23 29.016 142.42 30.04L141.844 29.656C142.697 28.6747 143.529 27.6507 144.34 26.584C145.15 25.5173 145.982 24.6 146.836 23.832C147.689 23.064 148.585 22.68 149.524 22.68C149.993 22.68 150.42 22.808 150.804 23.064C151.23 23.2773 151.444 23.64 151.444 24.152C151.444 24.6213 151.252 25.1973 150.868 25.88C150.526 26.52 150.057 27.2667 149.46 28.12C148.862 28.9307 148.18 29.848 147.412 30.872C146.686 31.8533 145.918 32.92 145.108 34.072L145.172 34.456C147.433 31.9813 149.332 29.976 150.868 28.44C152.446 26.904 153.748 25.7307 154.772 24.92C155.838 24.0667 156.756 23.4907 157.524 23.192C158.334 22.8507 159.102 22.68 159.828 22.68C160.809 22.68 161.513 22.8933 161.94 23.32C162.366 23.704 162.58 24.2373 162.58 24.92C162.58 25.944 162.281 27.032 161.684 28.184C161.086 29.2933 160.34 30.4027 159.444 31.512C158.59 32.5787 157.716 33.5813 156.82 34.52C155.966 35.416 155.241 36.184 154.644 36.824C154.046 37.464 153.748 37.8907 153.748 38.104C153.748 38.36 153.812 38.552 153.94 38.68C154.11 38.808 154.516 38.872 155.156 38.872C156.734 38.872 158.228 38.3813 159.636 37.4C161.086 36.4187 162.473 35.224 163.796 33.816C165.118 32.3653 166.356 30.936 167.508 29.528L168.02 29.976C166.868 31.3413 165.609 32.7707 164.244 34.264C162.878 35.7573 161.449 37.016 159.956 38.04C158.462 39.064 156.926 39.576 155.348 39.576Z" fill="#D79F11"/>
<path d="M128.322 10.836H129.336V14.437H133.379V10.836H134.38V19H133.379V15.308H129.336V19H128.322V10.836ZM139.905 19.156C139.229 19.156 138.624 19 138.091 18.688C137.558 18.376 137.138 17.908 136.83 17.284C136.522 16.6557 136.369 15.8713 136.369 14.931C136.369 13.9777 136.522 13.189 136.83 12.565C137.138 11.9367 137.558 11.4687 138.091 11.161C138.624 10.849 139.229 10.693 139.905 10.693C140.581 10.693 141.185 10.849 141.718 11.161C142.251 11.473 142.671 11.9432 142.979 12.5715C143.287 13.1998 143.441 13.9863 143.441 14.931C143.441 15.88 143.287 16.6687 142.979 17.297C142.671 17.921 142.251 18.3868 141.718 18.6945C141.185 19.0022 140.581 19.156 139.905 19.156ZM139.905 18.22C140.672 18.22 141.276 17.9405 141.718 17.3815C142.164 16.8225 142.388 16.0013 142.388 14.918C142.388 13.8563 142.164 13.0395 141.718 12.4675C141.276 11.8912 140.672 11.603 139.905 11.603C139.146 11.603 138.542 11.8912 138.091 12.4675C137.645 13.0438 137.422 13.865 137.422 14.931C137.422 16.01 137.645 16.829 138.091 17.388C138.542 17.9427 139.146 18.22 139.905 18.22ZM144.175 11.707V10.836H150.532V11.707H147.627L147.854 11.473V19H146.84V11.473L147.068 11.707H144.175ZM151.91 19V10.836H156.941V11.707H152.924V14.45H156.707V15.321H152.924V18.116H156.941V19H151.91ZM160.237 10.836V18.116H163.877V19H159.223V10.836H160.237Z" fill="#707070"/>
</svg>
