<svg width="123" height="51" viewBox="0 0 123 51" fill="none" xmlns="http://www.w3.org/2000/svg">
<g clip-path="url(#clip0_1602_10)">
<path d="M25.9508 25.7835L13.5206 21.0022C11.1846 20.1041 9.47459 17.8609 9.47459 15.026C9.51801 11.9767 11.9881 9.48787 14.9811 9.47701C18.1519 9.47701 20.5261 12.0418 20.5261 15.0033C20.5261 17.5868 22.6172 19.7568 25.3044 19.7401C27.9126 19.7174 30.0185 17.5424 29.9999 14.8908C29.9701 10.9267 28.41 7.1994 25.6064 4.39679C19.7465 -1.4651 10.2543 -1.46609 4.39338 4.39679C1.56018 7.229 0 10.9957 0 15.0033V45.7925C0 48.4047 2.12465 50.5293 4.7368 50.5293H25.263C27.8751 50.5293 29.9999 48.4047 29.9999 45.7925V31.6778C29.9999 29.0834 28.3725 26.714 25.9508 25.7835ZM22.0064 44.2136H7.89467C7.02231 44.2136 6.31574 43.507 6.31574 42.6346C6.31574 41.7623 7.02231 41.0557 7.89467 41.0557H22.0064C22.8788 41.0557 23.5853 41.7623 23.5853 42.6346C23.5853 43.507 22.8788 44.2136 22.0064 44.2136ZM22.0064 37.8978H7.89467C7.02231 37.8978 6.31574 37.1913 6.31574 36.3189C6.31574 35.4465 7.02231 34.74 7.89467 34.74H22.0064C22.8788 34.74 23.5853 35.4465 23.5853 36.3189C23.5853 37.1913 22.8788 37.8978 22.0064 37.8978Z" fill="#1C45E9"/>
</g>
<path d="M40.5458 17.5205C40.5458 16.8564 41.0048 16.3877 41.6005 16.3877C42.0399 16.3877 42.4012 16.5732 42.87 17.0811C43.6219 17.9502 44.618 18.3994 45.7802 18.3994C47.3427 18.3994 48.2313 17.7744 48.2313 16.6904C48.2313 15.792 47.6063 15.2354 46.161 14.8936L44.1688 14.4053C41.8739 13.8779 40.7313 12.6572 40.7313 10.7236C40.7313 8.27246 42.6649 6.68066 45.6337 6.68066C47.2255 6.68066 48.6512 7.13965 49.5302 7.9502C50.1356 8.49707 50.4579 9.12207 50.4579 9.7373C50.4579 10.3525 50.0282 10.7725 49.3934 10.7725C48.9833 10.7725 48.6317 10.5967 48.3192 10.2061C47.7235 9.31738 46.8251 8.81934 45.6727 8.81934C44.286 8.81934 43.3973 9.4834 43.3973 10.5186C43.3973 11.3486 44.0028 11.9346 45.243 12.2178L47.245 12.6963C49.6864 13.2529 50.8387 14.4346 50.8387 16.3975C50.8387 18.9365 48.8173 20.5479 45.6337 20.5479C43.9052 20.5479 42.3719 20.0693 41.493 19.2393C40.8778 18.6729 40.5458 18.0771 40.5458 17.5205ZM67.7333 18.9463C67.7333 19.8643 67.2645 20.3623 66.4442 20.3623C65.6239 20.3623 65.1649 19.8643 65.1649 18.9463V13.7998C65.1649 12.5693 64.5009 11.8662 63.3876 11.8662C62.2841 11.8662 61.5321 12.6963 61.5321 13.9463V18.9463C61.5321 19.8643 61.0927 20.3623 60.2821 20.3623C59.4813 20.3623 59.0419 19.8643 59.0419 18.9463V13.8486C59.0419 12.6182 58.3485 11.8662 57.2352 11.8662C56.1415 11.8662 55.4091 12.6768 55.4091 13.9365V18.9463C55.4091 19.8643 54.9403 20.3623 54.12 20.3623C53.2997 20.3623 52.8309 19.8643 52.8309 18.9463V11.1924C52.8309 10.333 53.3192 9.80566 54.1005 9.80566C54.8524 9.80566 55.3114 10.3037 55.3505 11.1338V11.6221H55.4774C55.8192 10.46 56.9032 9.7373 58.3094 9.7373C59.7645 9.7373 60.8192 10.4795 61.161 11.6904H61.2782C61.7274 10.4893 62.8993 9.7373 64.3934 9.7373C66.4833 9.7373 67.7333 10.9775 67.7333 13.0283V18.9463ZM72.2743 17.0908C72.2743 17.9502 72.9579 18.5459 73.9637 18.5459C75.077 18.5459 75.9462 17.7842 75.9462 16.8076V15.7334H73.954C72.8993 15.7334 72.2743 16.2412 72.2743 17.0908ZM75.9266 18.9463C75.3993 19.874 74.3739 20.4014 73.1044 20.4014C71.0829 20.4014 69.7157 19.1318 69.7157 17.2471C69.7157 15.333 71.1317 14.1514 73.4852 14.1514H75.9462V13.3018C75.9462 12.2568 75.2919 11.71 74.1102 11.71C73.329 11.71 72.7723 12.0029 72.1962 12.5205C71.9032 12.7549 71.6298 12.8623 71.2098 12.8623C70.6434 12.8623 70.2919 12.4814 70.2919 11.9541C70.2919 11.3486 70.7118 10.7334 71.62 10.2744C72.2743 9.93262 73.1434 9.7373 74.2762 9.7373C76.9911 9.7373 78.5145 11.0264 78.5145 13.3213V18.9854C78.5145 19.8643 78.0653 20.3623 77.2645 20.3623C76.5809 20.3623 76.1317 19.9814 76.0536 19.3076V18.9463H75.9266ZM83.5048 18.9463C83.5048 19.8447 83.036 20.3623 82.1962 20.3623C81.3661 20.3623 80.9364 19.8447 80.9364 18.9463V11.2314C80.9364 10.3232 81.3954 9.80566 82.2059 9.80566C82.9677 9.80566 83.3973 10.2549 83.4462 11.0557V11.2998H83.5536C83.9735 10.2842 84.7352 9.7373 85.7118 9.7373C86.0927 9.7373 86.3954 9.83496 86.62 10.0205C86.8641 10.2158 86.9911 10.5088 86.9911 10.8799C86.9911 11.2607 86.8739 11.5342 86.62 11.7197C86.4149 11.876 86.1024 11.9541 85.6825 11.9639C84.2372 11.9932 83.5048 12.7842 83.5048 14.3564V18.9463ZM89.745 17.4912V11.9932H89.2177C88.5243 11.9932 88.1239 11.6123 88.1239 10.9873C88.1239 10.3623 88.5243 9.98145 89.2177 9.98145H89.7938V8.63379C89.7938 7.74512 90.2528 7.24707 91.0438 7.24707C91.8446 7.24707 92.3036 7.74512 92.3036 8.63379V9.98145H93.329C94.0321 9.98145 94.4325 10.3623 94.4325 10.9873C94.4325 11.6123 94.0321 11.9932 93.329 11.9932H92.3231V17.208C92.3231 18.1455 92.577 18.458 93.3485 18.458C93.6219 18.458 93.7977 18.4189 94.0321 18.4189C94.4813 18.4189 94.7938 18.7217 94.7938 19.2002C94.7938 19.5811 94.6278 19.9033 94.2665 20.1182C93.9052 20.3525 93.3778 20.4697 92.6747 20.4697C90.6337 20.4697 89.745 19.6104 89.745 17.4912Z" fill="black"/>
<path d="M44.7401 34.8447C44.7401 35.1328 44.5741 35.3135 44.3104 35.3135C44.0468 35.3135 43.8954 35.1377 43.8954 34.8447V32.0176C43.8954 31.2314 43.4706 30.792 42.743 30.792C41.9081 30.792 41.3759 31.4023 41.3759 32.3936V34.8447C41.3759 35.1377 41.2147 35.3135 40.951 35.3135C40.6874 35.3135 40.536 35.1377 40.536 34.8447V28.6875C40.536 28.3896 40.6923 28.2188 40.951 28.2188C41.2147 28.2188 41.3759 28.3896 41.3759 28.6875V31.0703H41.4198C41.5956 30.4697 42.2499 30.0498 43.0116 30.0498C44.0858 30.0498 44.7401 30.6992 44.7401 31.7637V34.8447ZM48.1581 30.0449C49.4178 30.0449 50.3602 30.8701 50.3602 32.3057V33.0869C50.3602 34.5273 49.4178 35.3525 48.1581 35.3525C46.8934 35.3525 45.951 34.5273 45.951 33.0869V32.3057C45.951 30.8701 46.8934 30.0449 48.1581 30.0449ZM48.1581 30.7773C47.328 30.7773 46.8007 31.4121 46.8007 32.3789V33.0137C46.8007 34.0049 47.328 34.625 48.1581 34.625C48.9882 34.625 49.5057 34.0049 49.5057 33.0137V32.3789C49.5057 31.4121 48.9882 30.7773 48.1581 30.7773ZM51.9716 33.9023V30.8457H51.6005C51.3612 30.8457 51.2098 30.7139 51.2098 30.4941C51.2098 30.2744 51.3563 30.1377 51.6005 30.1377H51.9764V29.293C51.9764 29 52.1327 28.8291 52.3915 28.8291C52.6552 28.8291 52.8114 29 52.8114 29.293V30.1377H53.4999C53.744 30.1377 53.8905 30.2744 53.8905 30.4941C53.8905 30.7139 53.7391 30.8457 53.4999 30.8457H52.8163V33.9121C52.8163 34.459 52.953 34.6201 53.4266 34.6201C53.5634 34.6201 53.661 34.6055 53.7538 34.6055C53.9442 34.6055 54.076 34.7275 54.076 34.918C54.076 35.0547 54.0126 35.167 53.8612 35.2402C53.7245 35.3086 53.5341 35.3428 53.2557 35.3428C52.328 35.3428 51.9716 34.9717 51.9716 33.9023ZM54.8182 33.1113V32.3008C54.8182 30.9727 55.6971 30.0449 56.9618 30.0449C58.1874 30.0449 59.0468 30.9385 59.0468 32.1982C59.0468 32.7549 58.9491 32.9111 58.5878 32.9111H55.6678V33.1797C55.6727 34.0684 56.205 34.625 57.0839 34.625C57.5184 34.625 57.8553 34.4932 58.1288 34.2295C58.3925 33.9854 58.451 33.9463 58.5927 33.9463C58.7782 33.9463 58.9198 34.0977 58.9198 34.3027C58.9198 34.4541 58.827 34.6396 58.6805 34.791C58.3583 35.1377 57.7333 35.3525 57.0448 35.3525C55.6678 35.3525 54.8182 34.498 54.8182 33.1113ZM55.6678 32.2275H58.2118V32.2129C58.2118 31.3291 57.7284 30.7676 56.9716 30.7676C56.1952 30.7676 55.6678 31.3535 55.6678 32.2129V32.2275ZM60.7655 35.3135C60.5262 35.3135 60.3505 35.1621 60.3505 34.8447V28.6875C60.3505 28.3701 60.5262 28.2188 60.7655 28.2188C61.0048 28.2188 61.1854 28.3701 61.1854 28.6875V34.8447C61.1854 35.1621 61.0048 35.3135 60.7655 35.3135ZM71.7128 34.8447C71.7128 35.1377 71.5565 35.3135 71.2928 35.3135C71.0292 35.3135 70.8729 35.1377 70.8729 34.8447V31.8711C70.8729 31.1826 70.4677 30.7871 69.7889 30.7871C69.1249 30.7871 68.6366 31.2852 68.6366 31.9834V34.8447C68.6366 35.1377 68.4803 35.3135 68.2167 35.3135C67.953 35.3135 67.8016 35.1377 67.8016 34.8447V31.9053C67.8016 31.2168 67.3622 30.7871 66.6932 30.7871C66.0341 30.7871 65.5604 31.2705 65.5604 31.9736V34.8447C65.5604 35.1377 65.4042 35.3135 65.1405 35.3135C64.8768 35.3135 64.7206 35.1377 64.7206 34.8447V30.5527C64.7206 30.2598 64.8817 30.084 65.1405 30.084C65.3993 30.084 65.5555 30.2598 65.5555 30.5479V30.9482H65.5995C65.7899 30.377 66.2977 30.0498 66.9911 30.0498C67.704 30.0498 68.2411 30.416 68.4218 31.0166H68.4559C68.7098 30.4014 69.2811 30.0498 70.0184 30.0498C71.0927 30.0498 71.7128 30.6357 71.7128 31.6514V34.8447ZM73.7538 33.751C73.7538 34.2832 74.1737 34.6445 74.7987 34.6445C75.5067 34.6445 76.0585 34.1562 76.0585 33.5166V32.9355H74.745C74.1151 32.9355 73.7538 33.2285 73.7538 33.751ZM76.0487 34.5811C75.7411 35.0791 75.2186 35.3477 74.5692 35.3477C73.5682 35.3477 72.8944 34.7129 72.8944 33.7705C72.8944 32.8379 73.5731 32.2568 74.701 32.2568H76.0585V31.7588C76.0585 31.0996 75.663 30.7627 74.9257 30.7627C74.4911 30.7627 74.1981 30.9141 73.8905 31.2656C73.7733 31.4023 73.661 31.4512 73.5096 31.4512C73.3143 31.4512 73.1825 31.3193 73.1825 31.1191C73.1825 30.8311 73.3827 30.5479 73.7928 30.3135C74.0907 30.1426 74.4764 30.0498 74.9794 30.0498C76.2147 30.0498 76.8983 30.6553 76.8983 31.7539V34.8496C76.8983 35.1426 76.7469 35.3135 76.4882 35.3135C76.2391 35.3135 76.0927 35.1475 76.0829 34.8691V34.5811H76.0487ZM82.5184 34.8447C82.5184 35.1377 82.3573 35.3135 82.0936 35.3135C81.83 35.3135 81.6737 35.1377 81.6737 34.8447V32.0078C81.6737 31.2119 81.2733 30.792 80.5507 30.792C79.7059 30.792 79.1737 31.3926 79.1737 32.3936V34.8447C79.1737 35.1377 79.0175 35.3135 78.7538 35.3135C78.4901 35.3135 78.3339 35.1377 78.3339 34.8447V30.5527C78.3339 30.2598 78.495 30.084 78.7538 30.084C79.0126 30.084 79.1688 30.2549 79.1688 30.543V31.0703H79.2128C79.4276 30.4209 79.9843 30.0498 80.7704 30.0498C81.8788 30.0498 82.5184 30.6748 82.5184 31.7539V34.8447ZM84.5155 33.751C84.5155 34.2832 84.9354 34.6445 85.5604 34.6445C86.2684 34.6445 86.8202 34.1562 86.8202 33.5166V32.9355H85.5067C84.8768 32.9355 84.5155 33.2285 84.5155 33.751ZM86.8104 34.5811C86.5028 35.0791 85.9803 35.3477 85.3309 35.3477C84.33 35.3477 83.6561 34.7129 83.6561 33.7705C83.6561 32.8379 84.3348 32.2568 85.4628 32.2568H86.8202V31.7588C86.8202 31.0996 86.4247 30.7627 85.6874 30.7627C85.2528 30.7627 84.9598 30.9141 84.6522 31.2656C84.535 31.4023 84.4227 31.4512 84.2714 31.4512C84.076 31.4512 83.9442 31.3193 83.9442 31.1191C83.9442 30.8311 84.1444 30.5479 84.5546 30.3135C84.8524 30.1426 85.2382 30.0498 85.7411 30.0498C86.9764 30.0498 87.66 30.6553 87.66 31.7539V34.8496C87.66 35.1426 87.5087 35.3135 87.2499 35.3135C87.0009 35.3135 86.8544 35.1475 86.8446 34.8691V34.5811H86.8104ZM92.3719 34.4102C92.1718 34.8496 91.6542 35.2158 90.912 35.2158C89.7987 35.2158 88.8954 34.4053 88.8954 33.0723V32.2031C88.8954 30.8701 89.7987 30.0498 90.9022 30.0498C91.703 30.0498 92.2352 30.4795 92.4159 30.9043H92.455V30.543C92.455 30.2305 92.6161 30.084 92.8505 30.084C93.0897 30.084 93.2557 30.2354 93.2557 30.5527V35.1182C93.2557 36.5293 92.3524 37.1934 91.0731 37.1934C90.5067 37.1934 90.0038 37.0664 89.6376 36.8418C89.3251 36.6514 89.0858 36.373 89.0858 36.0996C89.0858 35.8896 89.2274 35.7383 89.4423 35.7383C89.6473 35.7383 89.745 35.8701 89.9012 36.0166C90.0966 36.1973 90.4286 36.4561 91.0389 36.4561C91.8885 36.4561 92.4208 35.9629 92.4208 35.1377V34.4102H92.3719ZM89.745 32.9062C89.745 33.8535 90.3114 34.4883 91.1219 34.4883C91.9667 34.4883 92.4159 33.7998 92.4159 33.0674V32.2324C92.4159 31.4805 91.952 30.7822 91.0927 30.7822C90.2772 30.7822 89.745 31.4268 89.745 32.374V32.9062ZM94.5839 33.1113V32.3008C94.5839 30.9727 95.4628 30.0449 96.7274 30.0449C97.953 30.0449 98.8124 30.9385 98.8124 32.1982C98.8124 32.7549 98.7147 32.9111 98.3534 32.9111H95.4335V33.1797C95.4384 34.0684 95.9706 34.625 96.8495 34.625C97.2841 34.625 97.621 34.4932 97.8944 34.2295C98.1581 33.9854 98.2167 33.9463 98.3583 33.9463C98.5438 33.9463 98.6854 34.0977 98.6854 34.3027C98.6854 34.4541 98.5927 34.6396 98.4462 34.791C98.1239 35.1377 97.4989 35.3525 96.8104 35.3525C95.4335 35.3525 94.5839 34.498 94.5839 33.1113ZM95.4335 32.2275H97.9774V32.2129C97.9774 31.3291 97.494 30.7676 96.7372 30.7676C95.9608 30.7676 95.4335 31.3535 95.4335 32.2129V32.2275ZM107.074 34.8447C107.074 35.1377 106.918 35.3135 106.654 35.3135C106.391 35.3135 106.234 35.1377 106.234 34.8447V31.8711C106.234 31.1826 105.829 30.7871 105.15 30.7871C104.486 30.7871 103.998 31.2852 103.998 31.9834V34.8447C103.998 35.1377 103.842 35.3135 103.578 35.3135C103.314 35.3135 103.163 35.1377 103.163 34.8447V31.9053C103.163 31.2168 102.724 30.7871 102.055 30.7871C101.395 30.7871 100.922 31.2705 100.922 31.9736V34.8447C100.922 35.1377 100.766 35.3135 100.502 35.3135C100.238 35.3135 100.082 35.1377 100.082 34.8447V30.5527C100.082 30.2598 100.243 30.084 100.502 30.084C100.761 30.084 100.917 30.2598 100.917 30.5479V30.9482H100.961C101.151 30.377 101.659 30.0498 102.352 30.0498C103.065 30.0498 103.602 30.416 103.783 31.0166H103.817C104.071 30.4014 104.642 30.0498 105.38 30.0498C106.454 30.0498 107.074 30.6357 107.074 31.6514V34.8447ZM108.344 33.1113V32.3008C108.344 30.9727 109.223 30.0449 110.487 30.0449C111.713 30.0449 112.572 30.9385 112.572 32.1982C112.572 32.7549 112.474 32.9111 112.113 32.9111H109.193V33.1797C109.198 34.0684 109.73 34.625 110.609 34.625C111.044 34.625 111.381 34.4932 111.654 34.2295C111.918 33.9854 111.976 33.9463 112.118 33.9463C112.304 33.9463 112.445 34.0977 112.445 34.3027C112.445 34.4541 112.352 34.6396 112.206 34.791C111.884 35.1377 111.259 35.3525 110.57 35.3525C109.193 35.3525 108.344 34.498 108.344 33.1113ZM109.193 32.2275H111.737V32.2129C111.737 31.3291 111.254 30.7676 110.497 30.7676C109.721 30.7676 109.193 31.3535 109.193 32.2129V32.2275ZM118.026 34.8447C118.026 35.1377 117.865 35.3135 117.601 35.3135C117.338 35.3135 117.182 35.1377 117.182 34.8447V32.0078C117.182 31.2119 116.781 30.792 116.058 30.792C115.214 30.792 114.682 31.3926 114.682 32.3936V34.8447C114.682 35.1377 114.525 35.3135 114.262 35.3135C113.998 35.3135 113.842 35.1377 113.842 34.8447V30.5527C113.842 30.2598 114.003 30.084 114.262 30.084C114.52 30.084 114.677 30.2549 114.677 30.543V31.0703H114.721C114.935 30.4209 115.492 30.0498 116.278 30.0498C117.387 30.0498 118.026 30.6748 118.026 31.7539V34.8447ZM119.774 33.9023V30.8457H119.403C119.164 30.8457 119.013 30.7139 119.013 30.4941C119.013 30.2744 119.159 30.1377 119.403 30.1377H119.779V29.293C119.779 29 119.935 28.8291 120.194 28.8291C120.458 28.8291 120.614 29 120.614 29.293V30.1377H121.303C121.547 30.1377 121.693 30.2744 121.693 30.4941C121.693 30.7139 121.542 30.8457 121.303 30.8457H120.619V33.9121C120.619 34.459 120.756 34.6201 121.229 34.6201C121.366 34.6201 121.464 34.6055 121.557 34.6055C121.747 34.6055 121.879 34.7275 121.879 34.918C121.879 35.0547 121.815 35.167 121.664 35.2402C121.527 35.3086 121.337 35.3428 121.058 35.3428C120.131 35.3428 119.774 34.9717 119.774 33.9023ZM40.2284 46.2197C40.2284 45.9854 40.37 45.8438 40.5946 45.8438C40.7313 45.8438 40.8339 45.9121 41.0048 46.1221C41.3173 46.4834 41.7177 46.6641 42.2401 46.6641C42.8993 46.6641 43.3143 46.3662 43.3143 45.8926C43.3143 45.5312 43.0507 45.2578 42.6014 45.1504L41.6249 44.9258C40.7313 44.7207 40.3016 44.2715 40.3016 43.5488C40.3016 42.6357 41.0341 42.0449 42.1766 42.0449C42.6893 42.0449 43.163 42.1768 43.5243 42.416C43.8319 42.6211 44.0223 42.8994 44.0223 43.1533C44.0223 43.3682 43.8807 43.5 43.6659 43.5C43.5145 43.5 43.4364 43.4512 43.2313 43.2412C42.8895 42.875 42.5917 42.7334 42.1425 42.7334C41.5126 42.7334 41.1268 43.0215 41.1268 43.4951C41.1268 43.8662 41.3661 44.0908 41.8788 44.2178L42.8309 44.4473C43.7245 44.6621 44.1395 45.0967 44.1395 45.8242C44.1395 46.7617 43.3973 47.3525 42.1962 47.3525C41.6737 47.3525 41.1805 47.2305 40.7997 47.0156C40.4335 46.8057 40.2284 46.5176 40.2284 46.2197ZM47.3671 42.0449C48.6268 42.0449 49.5692 42.8701 49.5692 44.3057V45.0869C49.5692 46.5273 48.6268 47.3525 47.3671 47.3525C46.1024 47.3525 45.16 46.5273 45.16 45.0869V44.3057C45.16 42.8701 46.1024 42.0449 47.3671 42.0449ZM47.3671 42.7773C46.537 42.7773 46.0096 43.4121 46.0096 44.3789V45.0137C46.0096 46.0049 46.537 46.625 47.3671 46.625C48.1971 46.625 48.7147 46.0049 48.7147 45.0137V44.3789C48.7147 43.4121 48.1971 42.7773 47.3671 42.7773ZM52.0204 46.8447C52.0204 47.1377 51.8593 47.3135 51.5956 47.3135C51.3368 47.3135 51.1805 47.1377 51.1805 46.8447V42.8408H50.7557C50.5165 42.8408 50.3651 42.709 50.3651 42.4893C50.3651 42.2646 50.5116 42.1377 50.7557 42.1377H51.1805V41.6348C51.1805 40.6582 51.6591 40.1846 52.6259 40.1846C52.8895 40.1846 53.0946 40.2383 53.2167 40.3311C53.3143 40.4092 53.368 40.502 53.368 40.6191C53.368 40.8145 53.2509 40.9365 53.0555 40.9365C52.8505 40.9365 52.8114 40.8975 52.577 40.8975C52.201 40.8975 52.0155 41.1221 52.0155 41.5957V42.1377H52.7382C52.9774 42.1377 53.1288 42.2695 53.1288 42.4893C53.1288 42.709 52.9774 42.8408 52.7382 42.8408H52.0204V46.8447ZM54.6278 45.9023V42.8457H54.2567C54.0175 42.8457 53.8661 42.7139 53.8661 42.4941C53.8661 42.2744 54.0126 42.1377 54.2567 42.1377H54.6327V41.293C54.6327 41 54.7889 40.8291 55.0477 40.8291C55.3114 40.8291 55.4677 41 55.4677 41.293V42.1377H56.1561C56.4003 42.1377 56.5468 42.2744 56.5468 42.4941C56.5468 42.7139 56.3954 42.8457 56.1561 42.8457H55.4725V45.9121C55.4725 46.459 55.6093 46.6201 56.0829 46.6201C56.2196 46.6201 56.3173 46.6055 56.41 46.6055C56.6005 46.6055 56.7323 46.7275 56.7323 46.918C56.7323 47.0547 56.6688 47.167 56.5175 47.2402C56.3807 47.3086 56.1903 47.3428 55.912 47.3428C54.9843 47.3428 54.6278 46.9717 54.6278 45.9023ZM58.6415 46.5225L57.6063 42.8164C57.5819 42.709 57.5673 42.6211 57.5673 42.5479C57.5673 42.2891 57.7479 42.1084 58.0116 42.1084C58.2264 42.1084 58.3876 42.2793 58.4608 42.5869L59.2762 46.2246H59.3104L60.243 42.8701C60.4139 42.2402 60.5262 42.1084 60.8485 42.1084C61.1708 42.1084 61.2782 42.2354 61.4589 42.8701L62.411 46.2246H62.4501L63.2948 42.5674C63.368 42.2695 63.5145 42.1084 63.7196 42.1084C63.9589 42.1084 64.12 42.2695 64.12 42.5039C64.12 42.5674 64.1053 42.6357 64.0712 42.7578L63.0702 46.5225C62.8944 47.1719 62.7675 47.3135 62.4598 47.3135C62.1425 47.3135 61.996 47.1719 61.8104 46.5225L60.8632 43.2998H60.8387L59.9159 46.5225C59.7303 47.1719 59.6132 47.3135 59.2909 47.3135C58.9491 47.3135 58.8221 47.1719 58.6415 46.5225ZM65.746 45.751C65.746 46.2832 66.1659 46.6445 66.7909 46.6445C67.4989 46.6445 68.0507 46.1562 68.0507 45.5166V44.9355H66.7372C66.1073 44.9355 65.746 45.2285 65.746 45.751ZM68.0409 46.5811C67.7333 47.0791 67.2108 47.3477 66.5614 47.3477C65.5604 47.3477 64.8866 46.7129 64.8866 45.7705C64.8866 44.8379 65.5653 44.2568 66.6932 44.2568H68.0507V43.7588C68.0507 43.0996 67.6552 42.7627 66.9178 42.7627C66.4833 42.7627 66.1903 42.9141 65.8827 43.2656C65.7655 43.4023 65.6532 43.4512 65.5018 43.4512C65.3065 43.4512 65.1747 43.3193 65.1747 43.1191C65.1747 42.8311 65.3749 42.5479 65.785 42.3135C66.0829 42.1426 66.4686 42.0498 66.9716 42.0498C68.2069 42.0498 68.8905 42.6553 68.8905 43.7539V46.8496C68.8905 47.1426 68.7391 47.3135 68.4803 47.3135C68.2313 47.3135 68.0848 47.1475 68.0751 46.8691V46.5811H68.0409ZM71.1659 46.8447C71.1659 47.1377 71.0145 47.3135 70.746 47.3135C70.4823 47.3135 70.326 47.1377 70.326 46.8447V42.5527C70.326 42.2646 70.4921 42.084 70.7509 42.084C71.0096 42.084 71.161 42.2598 71.161 42.543V42.7383H71.1854C71.454 42.2793 71.8495 42.0498 72.3182 42.0498C72.4647 42.0498 72.5868 42.0791 72.6796 42.1377C72.787 42.2012 72.8456 42.3135 72.8456 42.4453C72.8456 42.5967 72.7919 42.6992 72.6796 42.7627C72.5917 42.8115 72.4696 42.8311 72.3085 42.8311C71.5565 42.8359 71.1659 43.2412 71.1659 44.0859V46.8447ZM73.5096 45.1113V44.3008C73.5096 42.9727 74.3885 42.0449 75.6532 42.0449C76.8788 42.0449 77.7382 42.9385 77.7382 44.1982C77.7382 44.7549 77.6405 44.9111 77.2792 44.9111H74.3593V45.1797C74.3641 46.0684 74.8964 46.625 75.7753 46.625C76.2098 46.625 76.5468 46.4932 76.8202 46.2295C77.0839 45.9854 77.1425 45.9463 77.2841 45.9463C77.4696 45.9463 77.6112 46.0977 77.6112 46.3027C77.6112 46.4541 77.5184 46.6396 77.3719 46.791C77.0497 47.1377 76.4247 47.3525 75.7362 47.3525C74.3593 47.3525 73.5096 46.498 73.5096 45.1113ZM74.3593 44.2275H76.9032V44.2129C76.9032 43.3291 76.4198 42.7676 75.663 42.7676C74.8866 42.7676 74.3593 43.3535 74.3593 44.2129V44.2275Z" fill="black"/>
<defs>
<clipPath id="clip0_1602_10">
<rect width="30" height="51" fill="white"/>
</clipPath>
</defs>
</svg>
